<?xml version="1.0" standalone="no"?>
<!DOCTYPE svg PUBLIC "-//W3C//DTD SVG 20010904//EN"
 "http://www.w3.org/TR/2001/REC-SVG-20010904/DTD/svg10.dtd">
<svg version="1.0" xmlns="http://www.w3.org/2000/svg"
 width="485.000000pt" height="343.000000pt" viewBox="0 0 485.000000 343.000000"
 preserveAspectRatio="xMidYMid meet">

<g transform="translate(0.000000,343.000000) scale(0.100000,-0.100000)"
fill="#000000" stroke="none">
<path d="M2028 3139 c-9 -5 -82 -10 -162 -12 -137 -2 -146 -3 -166 -25 -14
-15 -32 -23 -48 -22 -87 6 -133 -1 -150 -21 -30 -37 -84 -89 -91 -89 -21 0
-49 -43 -55 -84 -8 -50 -39 -96 -65 -96 -10 0 -35 -21 -57 -46 -41 -49 -42
-50 -87 -87 -26 -20 -29 -30 -32 -93 -2 -39 -9 -83 -15 -98 -5 -15 -10 -72
-10 -126 0 -82 -4 -105 -20 -132 -11 -18 -20 -42 -20 -54 0 -23 52 -101 82
-122 27 -19 68 -88 68 -113 0 -30 62 -89 93 -89 28 0 87 -44 87 -66 0 -7 19
-18 43 -25 43 -12 50 -11 157 23 19 6 89 14 155 18 66 4 121 8 122 9 2 0 2 7
0 13 -1 7 8 14 20 16 15 2 23 -3 28 -18 12 -37 61 -59 116 -53 41 5 48 3 58
-15 7 -14 8 -28 2 -39 -5 -10 -14 -40 -20 -68 -6 -27 -13 -60 -17 -71 -4 -15
3 -32 25 -57 17 -19 31 -39 31 -44 0 -5 17 -27 39 -49 22 -23 42 -56 46 -75 3
-19 9 -42 11 -51 4 -13 0 -18 -15 -18 -27 0 -26 -7 9 -54 16 -22 33 -55 36
-74 6 -28 3 -38 -18 -56 -59 -51 -77 -231 -30 -295 28 -38 62 -140 62 -186 0
-20 9 -53 20 -75 11 -22 20 -53 20 -70 0 -23 9 -40 35 -63 38 -35 62 -94 45
-111 -20 -20 -9 -52 33 -92 54 -53 114 -67 146 -35 17 17 34 21 82 21 95 0
170 42 276 155 108 114 116 126 115 180 -1 43 1 46 38 65 52 27 60 44 60 138
l0 79 56 38 c69 48 172 150 185 183 7 18 4 34 -15 70 -13 26 -29 74 -34 107
-5 33 -18 94 -30 135 -21 78 -20 90 4 90 8 0 14 5 14 11 0 6 16 27 35 47 19
20 35 41 35 45 0 16 64 87 79 88 36 1 91 36 116 72 30 46 128 250 150 313 8
25 15 65 15 89 0 42 -2 45 -27 47 -49 2 -67 -2 -95 -22 -19 -14 -46 -20 -102
-22 -41 -2 -75 -1 -74 2 4 17 -48 94 -73 108 -16 9 -32 25 -35 34 -3 9 -19 29
-35 43 -42 35 -99 145 -106 206 -5 43 -12 55 -54 93 -35 32 -49 53 -55 82 -9
53 -51 133 -85 164 -16 14 -29 36 -31 50 -5 38 -42 52 -127 46 -55 -3 -82 -1
-104 10 -16 9 -35 13 -43 10 -8 -3 -30 4 -49 16 -22 12 -61 22 -99 25 -55 5
-66 3 -85 -16 -11 -11 -21 -31 -21 -44 0 -20 -4 -22 -39 -19 -31 3 -38 7 -34
21 9 33 -23 51 -91 51 -49 0 -67 4 -80 19 -11 12 -14 21 -7 25 6 4 10 35 9 70
l-2 64 -51 6 c-66 8 -77 7 -97 -5z m59 -71 c-2 -7 -12 -12 -22 -10 -10 2 -28
1 -41 -2 -21 -6 -24 -12 -24 -56 0 -29 -5 -50 -11 -50 -18 0 -113 67 -127 89
-12 20 -10 21 40 23 29 0 65 0 80 -1 15 -1 36 2 45 8 26 15 66 14 60 -1z
m-187 -136 c0 -10 -38 -55 -84 -100 -80 -79 -86 -82 -129 -82 -37 0 -53 6 -80
30 -45 39 -117 133 -117 151 0 9 15 31 33 50 25 27 41 35 72 37 l40 3 -32 -31
c-37 -35 -40 -48 -18 -89 23 -45 72 -81 110 -81 26 0 45 11 89 51 31 28 56 56
56 62 0 6 -23 35 -52 64 -52 52 -52 52 -27 62 22 9 30 4 82 -50 31 -33 57 -68
57 -77z m-165 43 c63 -62 -13 -131 -79 -70 -14 13 -26 29 -26 35 0 17 47 60
65 60 9 0 27 -11 40 -25z m265 -176 l0 -131 -47 35 c-27 19 -58 49 -70 67 -20
29 -21 35 -8 60 11 20 104 97 123 100 1 0 2 -59 2 -131z m558 97 c15 -8 49
-37 75 -64 l48 -49 -75 -66 c-40 -37 -78 -67 -83 -67 -5 0 -40 31 -78 70 -53
53 -66 73 -58 81 9 9 22 8 55 -4 24 -10 64 -16 88 -15 l45 1 -42 4 -41 4 -4
50 c-4 69 14 84 70 55z m-1069 -47 c36 -36 38 -48 11 -81 -18 -24 -109 -88
-123 -88 -14 0 -7 84 8 100 8 9 21 40 27 68 14 57 21 57 77 1z m769 42 c8 -4
19 -19 26 -32 6 -13 24 -30 39 -37 16 -8 30 -19 33 -26 3 -7 -28 -45 -68 -83
l-72 -71 -77 71 -77 72 56 57 c48 48 63 57 92 58 19 0 41 -4 48 -9z m500 -73
c-22 -33 -41 -36 -27 -4 7 14 19 26 27 26 13 0 13 -3 0 -22z m32 -9 c-12 -16
-24 -28 -26 -26 -9 9 20 57 33 57 11 0 9 -8 -7 -31z m50 22 c0 -11 -39 -59
-40 -49 0 14 23 58 32 58 4 0 8 -4 8 -9z m40 0 c0 -10 -39 -59 -40 -49 0 17
20 58 30 58 5 0 10 -4 10 -9z m20 -31 c0 -5 -4 -10 -10 -10 -5 0 -10 5 -10 10
0 6 5 10 10 10 6 0 10 -4 10 -10z m-1013 -64 c21 -19 46 -48 56 -65 l18 -31
-130 0 c-72 0 -131 4 -131 9 0 13 68 99 88 110 31 19 61 11 99 -23z m868 4 c8
-16 15 -32 15 -36 0 -14 -38 28 -43 47 -8 29 11 23 28 -11z m45 -22 c0 -27
-16 -14 -29 24 -11 31 -11 31 9 13 11 -10 20 -27 20 -37z m43 1 c8 -29 -11
-23 -28 11 -8 16 -15 32 -15 36 0 14 38 -28 43 -47z m37 -7 c0 -14 -2 -14 -14
-2 -8 8 -17 26 -20 40 l-7 25 20 -24 c12 -13 21 -30 21 -39z m39 -2 c0 -10 -6
-8 -19 9 -11 13 -20 31 -20 40 0 12 5 10 20 -9 11 -14 20 -32 19 -40z m-1339
40 c10 -5 37 -32 60 -60 l42 -50 -142 0 -141 0 27 36 c32 42 91 84 117 84 10
0 26 -4 37 -10z m1366 -7 c22 -30 16 -52 -6 -24 -20 23 -26 41 -14 41 4 0 13
-8 20 -17z m-191 -83 c-9 -16 -20 -30 -26 -30 -5 0 -3 14 6 30 9 17 20 30 26
30 5 0 3 -13 -6 -30z m40 0 c-9 -16 -20 -30 -26 -30 -5 0 -3 14 6 30 9 17 20
30 26 30 5 0 3 -13 -6 -30z m40 0 c-9 -16 -20 -30 -25 -30 -14 0 -12 12 6 38
23 33 37 27 19 -8z m45 18 c-1 -18 -29 -53 -36 -45 -4 3 1 18 10 32 18 28 26
32 26 13z m24 -30 c-10 -18 -19 -27 -22 -20 -4 14 26 67 35 59 2 -3 -3 -20
-13 -39z m45 8 c-11 -24 -29 -36 -29 -18 0 12 31 54 36 49 3 -2 -1 -16 -7 -31z
m36 -5 c-7 -23 -25 -29 -25 -8 0 14 21 39 28 33 2 -3 1 -14 -3 -25z m-1657
-41 c8 0 12 -20 12 -60 l0 -60 -62 0 c-35 0 -69 4 -75 8 -7 5 -16 30 -19 58
-6 48 8 55 19 9 3 -13 5 -9 6 13 1 19 -4 32 -11 32 -7 0 2 9 20 20 17 11 32
25 32 32 0 6 15 -2 33 -20 18 -18 38 -32 45 -32z m822 -44 c0 -26 -6 -18 -14
19 -5 22 -4 26 4 15 5 -8 10 -24 10 -34z m410 -15 c-11 -28 -20 -53 -20 -55 0
-2 28 -9 63 -15 111 -21 118 -27 65 -50 l-32 -15 34 -12 35 -12 -32 -13 c-43
-17 -42 -25 5 -34 l37 -7 -40 -21 -40 -22 33 -3 c42 -4 41 -16 -5 -34 l-38
-15 43 -8 c47 -8 47 -14 -1 -31 -28 -10 -30 -13 -12 -19 60 -20 60 -21 9 -37
l-48 -15 39 -13 c22 -7 44 -16 50 -21 13 -13 5 -11 -60 11 -32 11 -60 20 -63
20 -2 0 -2 -9 1 -20 5 -19 0 -20 -183 -20 l-189 0 11 -32 c16 -49 25 -54 33
-19 8 37 22 40 31 6 3 -14 10 -25 15 -25 5 0 9 11 9 25 0 14 4 25 8 25 5 0 15
-11 22 -25 7 -14 17 -25 22 -25 4 0 8 11 8 25 0 34 15 31 30 -5 16 -39 24 -38
37 8 l10 37 12 -32 c15 -39 31 -43 31 -8 0 33 12 32 33 -4 23 -39 21 -52 -3
-21 l-20 25 -1 -25 c-1 -14 -1 -28 0 -32 3 -22 -22 -4 -32 22 -15 39 -21 38
-33 -7 l-10 -38 -19 38 -19 38 -12 -33 -11 -33 -18 35 -18 35 -12 -40 -12 -40
-12 28 c-6 16 -11 33 -11 39 0 18 -14 -1 -26 -35 l-10 -31 -18 45 -19 44 -14
-42 c-8 -24 -19 -43 -24 -43 -5 0 0 23 11 50 25 63 25 70 0 70 -19 0 -20 7
-20 200 l0 200 185 0 c102 0 185 2 185 4 0 2 -7 21 -16 42 l-17 39 -12 -40
-12 -40 -13 32 c-13 37 -30 35 -30 -3 0 -34 -15 -30 -31 8 l-13 31 -11 -34
-12 -34 -21 40 -20 40 -7 -30 c-12 -48 -17 -50 -36 -14 l-17 34 -10 -35 -9
-35 -24 40 -24 40 -9 -37 c-5 -21 -14 -38 -19 -38 -5 0 -6 8 -2 18 3 9 9 29
12 45 8 41 21 42 40 2 l17 -36 11 38 11 38 21 -39 20 -39 7 36 c8 45 19 47 36
7 16 -39 28 -38 32 3 l3 32 22 -40 21 -40 7 38 c9 46 17 47 34 5 l13 -33 9 33
c13 43 23 40 39 -10 10 -36 14 -40 20 -23 5 11 13 33 19 49 6 16 14 26 17 24
2 -3 -4 -29 -16 -57z m37 37 c-3 -8 -6 -5 -6 6 -1 11 2 17 5 13 3 -3 4 -12 1
-19z m-595 -15 c2 -9 2 -144 0 -300 l-3 -283 -314 0 -315 0 0 300 0 300 314 0
c285 0 315 -2 318 -17z m678 -29 c0 -6 -6 -17 -14 -23 -19 -16 -60 17 -51 41
13 34 65 20 65 -18z m-557 14 c4 -12 2 -27 -3 -33 -6 -7 -6 -16 -2 -20 4 -5 1
-5 -6 -1 -7 4 -19 2 -27 -4 -11 -9 -15 -9 -15 -1 0 6 5 11 11 11 8 0 8 5 -1
15 -7 8 -17 12 -23 8 -5 -3 -8 -2 -5 3 3 5 8 17 11 27 9 26 53 22 60 -5z m920
-13 c28 -24 33 -32 18 -28 -23 6 -51 -12 -51 -32 0 -7 8 -22 18 -34 20 -24 62
-19 63 8 0 9 8 -4 18 -29 18 -44 18 -45 -1 -62 -60 -53 -156 22 -212 164 -8
20 -12 39 -8 42 3 3 30 6 61 6 49 -1 61 -5 94 -35z m-441 -15 c3 -16 1 -30 -4
-30 -4 0 -8 14 -8 30 0 17 2 30 4 30 2 0 6 -13 8 -30z m-494 -67 c48 -17 47
-29 -3 -39 -38 -7 -38 -24 0 -24 37 0 38 -17 2 -31 -31 -12 -31 -12 -7 -16 40
-7 44 -20 11 -34 l-31 -14 32 -11 33 -12 -40 -18 -40 -18 38 -10 c46 -12 47
-20 5 -37 l-33 -13 33 -3 c42 -5 41 -15 -5 -38 l-38 -19 43 -9 c23 -6 42 -14
42 -19 0 -5 -8 -7 -17 -4 -10 3 -31 8 -48 12 -49 11 -50 16 -9 40 36 22 37 24
14 24 -48 0 -54 16 -13 33 l38 15 -37 7 c-46 9 -48 18 -8 35 39 16 38 28 -2
32 l-33 4 40 18 40 19 -40 12 c-39 12 -40 12 -15 22 14 6 32 12 40 15 8 3 -2
8 -22 12 -49 9 -48 20 5 36 l42 13 -40 14 c-22 7 -44 19 -50 25 -7 8 -4 9 10
3 11 -4 39 -14 63 -22z m-803 2 l-30 -14 28 -1 c22 0 28 -4 25 -17 -2 -14 -14
-18 -53 -20 l-50 -2 40 14 40 13 -37 1 c-26 1 -38 6 -38 15 0 19 16 24 65 24
l40 0 -30 -13z m1509 -17 c33 -18 85 -56 113 -85 50 -49 52 -53 42 -82 -12
-35 -89 -108 -166 -158 -29 -18 -55 -33 -58 -33 -3 0 -5 88 -5 195 0 107 3
195 6 195 3 0 34 -15 68 -32z m-1504 -63 c-25 -14 -25 -14 -2 -15 35 0 30 -40
-5 -41 l-28 -1 30 -8 c28 -7 29 -8 5 -9 l-25 -2 25 -12 25 -11 -29 -4 c-15 -2
-40 0 -55 4 l-26 7 30 7 c28 7 28 8 5 9 -19 1 -26 7 -26 21 0 16 7 20 36 21
l35 2 -35 6 c-22 4 -36 12 -38 24 -3 14 4 17 50 17 51 -1 52 -1 28 -15z m-140
-14 c5 -11 16 -44 24 -75 18 -68 8 -111 -35 -152 l-32 -29 8 30 c4 17 9 78 12
138 3 59 6 107 9 107 2 0 8 -9 14 -19z m1914 -47 c22 -21 20 -47 -4 -69 -17
-15 -24 -16 -45 -7 -29 13 -43 56 -25 77 16 20 54 19 74 -1z m96 -39 c0 -7 20
-33 45 -58 25 -26 45 -50 45 -56 0 -5 16 -19 36 -30 20 -12 34 -24 31 -28 -9
-8 -103 54 -154 101 -30 27 -43 47 -43 66 0 14 3 30 7 33 8 9 33 -12 33 -28z
m-1870 -25 c-24 -8 -24 -8 -2 -9 34 -2 26 -21 -10 -23 l-33 -1 33 -4 c24 -3
32 -9 32 -24 0 -17 -7 -19 -52 -18 -30 1 -41 4 -25 6 29 5 28 23 -2 23 -27 0
-21 30 8 37 l26 7 -30 7 c-23 5 -17 7 25 7 42 0 49 -2 30 -8z m1820 -76 c34
-31 100 -145 100 -174 0 -6 -70 -10 -190 -10 -125 0 -190 4 -190 10 0 16 35
80 69 128 66 90 143 107 211 46z m-1800 -24 c0 -5 -17 -11 -37 -12 l-38 -1 38
-4 c29 -3 37 -9 37 -24 0 -16 -7 -19 -50 -19 -51 0 -72 19 -22 21 l27 1 -25 7
c-14 3 -26 14 -28 24 -2 14 5 17 48 17 27 0 50 -4 50 -10z m10 -130 l0 -60
345 0 345 0 0 -80 c0 -79 0 -80 -25 -80 -24 0 -25 3 -25 60 l0 60 -120 0 c-66
0 -120 -3 -120 -7 0 -4 9 -16 20 -28 13 -14 16 -25 10 -35 -8 -12 -17 -7 -48
29 l-38 44 -26 -33 c-16 -20 -36 -34 -53 -36 l-28 -3 27 28 c14 15 26 30 26
34 0 4 -52 7 -115 7 l-115 0 -1 -27 c-1 -16 -1 -32 0 -36 1 -5 -4 -6 -11 -3
-7 3 -21 9 -30 12 -11 4 -18 19 -20 43 -3 34 -5 36 -42 41 -35 4 -42 10 -62
50 -38 73 -35 80 41 80 l65 0 0 -60z m1229 -4 c-6 -25 -15 -46 -20 -46 -11 0
-11 0 2 41 6 19 13 40 15 48 3 8 7 12 10 9 3 -3 0 -26 -7 -52z m-452 38 c-3
-4 -2 -16 4 -26 8 -15 7 -24 -3 -35 -16 -16 -44 -9 -52 14 -8 19 1 32 28 43
26 11 31 12 23 4z m557 -26 c8 -14 7 -21 -5 -33 -28 -29 -73 11 -48 42 15 17
38 13 53 -9z m-77 -30 c-3 -8 -6 -5 -6 6 -1 11 2 17 5 13 3 -3 4 -12 1 -19z
m913 -23 c-18 -19 -34 -25 -67 -25 l-43 0 -2 -132 -2 -133 -4 115 c-2 63 0
134 3 157 l6 42 62 3 c34 2 64 2 66 0 3 -1 -6 -13 -19 -27z m-1362 -10 c-3 -3
-9 2 -12 12 -6 14 -5 15 5 6 7 -7 10 -15 7 -18z m525 -2 c-7 -2 -19 -2 -25 0
-7 3 -2 5 12 5 14 0 19 -2 13 -5z m704 -9 c-3 -3 -12 -4 -19 -1 -8 3 -5 6 6 6
11 1 17 -2 13 -5z m-1226 -24 c31 -17 22 -30 -21 -30 -28 0 -40 4 -40 14 0 24
31 32 61 16z m102 -4 c22 -17 22 -26 -3 -26 -12 0 -20 7 -20 18 -1 16 -1 16
-14 0 -14 -19 -36 -24 -36 -8 0 10 29 29 45 29 6 0 18 -6 28 -13z m95 2 c21
-21 13 -28 -28 -28 -22 0 -40 4 -40 8 0 14 23 32 40 32 9 0 21 -5 28 -12z m94
-2 c23 -17 13 -26 -29 -26 -35 0 -41 8 -21 28 15 15 29 15 50 -2z m96 2 c16
-16 15 -28 -3 -28 -8 0 -15 5 -15 10 0 6 -5 10 -11 10 -5 0 -8 -4 -5 -8 2 -4
-4 -9 -15 -9 -24 -2 -24 6 -1 23 21 17 35 17 50 2z m118 -15 c34 -28 44 -59
24 -79 -6 -6 -6 -21 2 -42 11 -27 10 -34 -5 -49 -16 -16 -17 -16 -17 5 0 13 4
20 10 17 6 -3 10 -1 10 4 0 6 -4 11 -10 11 -6 0 -10 27 -10 60 0 57 -5 66 -33
61 -5 -1 -6 3 -3 8 4 5 2 12 -4 16 -6 3 -13 -1 -16 -9 -3 -9 -16 -16 -28 -16
-21 1 -21 1 3 20 30 26 35 25 77 -7z m169 17 c3 -5 1 -10 -4 -10 -6 0 -11 5
-11 10 0 6 2 10 4 10 3 0 8 -4 11 -10z m110 0 c3 -5 -1 -10 -10 -10 -9 0 -13
5 -10 10 3 6 8 10 10 10 2 0 7 -4 10 -10z m110 0 c3 -5 1 -10 -4 -10 -6 0 -11
5 -11 10 0 6 2 10 4 10 3 0 8 -4 11 -10z m110 0 c3 -5 -1 -10 -10 -10 -9 0
-13 5 -10 10 3 6 8 10 10 10 2 0 7 -4 10 -10z m110 0 c3 -5 -1 -10 -10 -10 -9
0 -13 5 -10 10 3 6 8 10 10 10 2 0 7 -4 10 -10z m109 -11 c-3 -5 -10 -7 -15
-3 -5 3 -7 10 -3 15 3 5 10 7 15 3 5 -3 7 -10 3 -15z m-614 1 c0 -5 -4 -10 -9
-10 -6 0 -13 5 -16 10 -3 6 1 10 9 10 9 0 16 -4 16 -10z m110 6 c0 -11 -19
-15 -25 -6 -3 5 1 10 9 10 9 0 16 -2 16 -4z m110 0 c0 -11 -19 -15 -25 -6 -3
5 1 10 9 10 9 0 16 -2 16 -4z m105 -6 c-3 -5 -10 -10 -16 -10 -5 0 -9 5 -9 10
0 6 7 10 16 10 8 0 12 -4 9 -10z m115 6 c0 -11 -19 -15 -25 -6 -3 5 1 10 9 10
9 0 16 -2 16 -4z m100 -6 c0 -5 -4 -10 -10 -10 -5 0 -10 5 -10 10 0 6 5 10 10
10 6 0 10 -4 10 -10z m-1980 -30 c0 -5 -2 -10 -4 -10 -3 0 -8 5 -11 10 -3 6
-1 10 4 10 6 0 11 -4 11 -10z m760 -4 c0 -8 -6 -17 -12 -20 -10 -5 -10 -7 0
-12 6 -3 12 -13 12 -22 0 -15 -1 -15 -16 0 -11 11 -14 25 -10 42 7 27 26 36
26 12z m675 4 c3 -5 1 -10 -4 -10 -6 0 -11 5 -11 10 0 6 2 10 4 10 3 0 8 -4
11 -10z m585 -149 c0 -106 -4 -162 -11 -167 -6 -3 -17 -22 -25 -40 -16 -38
-40 -48 -28 -11 4 12 8 60 9 107 3 94 10 121 30 114 10 -4 12 1 8 15 -3 12 -9
21 -13 21 -10 0 -40 -63 -40 -84 0 -25 -35 -84 -62 -105 -20 -16 -23 -27 -21
-68 1 -26 2 -50 3 -53 0 -3 7 10 15 28 18 41 45 43 45 4 0 -28 -31 -68 -42
-56 -3 3 -9 -13 -13 -35 -4 -23 -10 -42 -13 -42 -33 -6 -139 -4 -149 3 -7 6
-14 4 -19 -4 -6 -9 -10 -6 -15 12 -7 24 -7 24 -8 3 -1 -26 -11 -29 -29 -11 -9
9 -12 9 -13 -3 0 -9 -4 -6 -9 6 -7 17 -9 17 -9 3 -1 -20 -5 -21 -38 -12 -16 5
-23 15 -26 43 l-4 36 -1 -42 -2 -42 -45 2 -45 2 0 268 0 267 285 0 285 0 0
-159z m40 155 c0 -3 -4 -8 -10 -11 -5 -3 -10 -1 -10 4 0 6 5 11 10 11 6 0 10
-2 10 -4z m-1200 -16 c0 -5 -4 -10 -10 -10 -5 0 -10 5 -10 10 0 6 5 10 10 10
6 0 10 -4 10 -10z m30 0 c0 -5 -5 -10 -11 -10 -5 0 -7 5 -4 10 3 6 8 10 11 10
2 0 4 -4 4 -10z m60 0 c0 -5 -4 -10 -10 -10 -5 0 -10 5 -10 10 0 6 5 10 10 10
6 0 10 -4 10 -10z m280 0 c0 -5 -4 -10 -10 -10 -5 0 -10 5 -10 10 0 6 5 10 10
10 6 0 10 -4 10 -10z m30 0 c0 -5 -5 -10 -11 -10 -5 0 -7 5 -4 10 3 6 8 10 11
10 2 0 4 -4 4 -10z m60 0 c0 -5 -5 -10 -11 -10 -5 0 -7 5 -4 10 3 6 8 10 11
10 2 0 4 -4 4 -10z m740 -20 c0 -5 -4 -10 -10 -10 -5 0 -10 5 -10 10 0 6 5 10
10 10 6 0 10 -4 10 -10z m-770 -225 l0 -225 -95 0 c-94 0 -96 0 -106 27 -5 14
-7 39 -4 54 6 24 0 35 -35 68 -30 28 -41 46 -38 63 2 17 9 22 25 21 30 -3 41
21 39 82 l-1 50 -54 13 c-30 8 -66 22 -79 33 -31 24 -44 24 -59 0 -23 -37 11
-87 37 -55 17 20 25 18 38 -11 17 -38 15 -81 -8 -125 -27 -53 -25 -77 10 -152
34 -71 31 -75 -44 -64 -35 6 -46 13 -74 55 -33 47 -34 51 -28 122 8 94 8 129
0 207 l-6 62 241 0 241 0 0 -225z m150 221 c0 -3 -4 -8 -10 -11 -5 -3 -10 -1
-10 4 0 6 5 11 10 11 6 0 10 -2 10 -4z m-1062 -13 c-10 -2 -28 -2 -40 0 -13 2
-5 4 17 4 22 1 32 -1 23 -4z m1057 -23 c3 -5 2 -10 -4 -10 -5 0 -13 5 -16 10
-3 6 -2 10 4 10 5 0 13 -4 16 -10z m625 6 c0 -11 -19 -15 -25 -6 -3 5 1 10 9
10 9 0 16 -2 16 -4z m-625 -36 c3 -5 1 -10 -4 -10 -6 0 -11 5 -11 10 0 6 2 10
4 10 3 0 8 -4 11 -10z m625 0 c0 -5 -4 -10 -10 -10 -5 0 -10 5 -10 10 0 6 5
10 10 10 6 0 10 -4 10 -10z m-5 -29 c3 -5 1 -12 -5 -16 -5 -3 -10 1 -10 9 0
18 6 21 15 7z m-615 -11 c0 -5 -4 -10 -10 -10 -5 0 -10 5 -10 10 0 6 5 10 10
10 6 0 10 -4 10 -10z m-6 -41 c-3 -5 -10 -7 -15 -3 -5 3 -7 10 -3 15 3 5 10 7
15 3 5 -3 7 -10 3 -15z m626 11 c0 -5 -4 -10 -10 -10 -5 0 -10 5 -10 10 0 6 5
10 10 10 6 0 10 -4 10 -10z m-698 -62 l-22 -22 0 44 0 44 22 -22 22 -22 -22
-22z m715 -10 c-3 -7 -5 -2 -5 12 0 14 2 19 5 13 2 -7 2 -19 0 -25z m-637 2
c0 -5 -4 -10 -10 -10 -5 0 -10 5 -10 10 0 6 5 10 10 10 6 0 10 -4 10 -10z
m620 0 c0 -5 -4 -10 -10 -10 -5 0 -10 5 -10 10 0 6 5 10 10 10 6 0 10 -4 10
-10z m-698 -82 l-22 -22 0 44 0 44 22 -22 22 -22 -22 -22z m72 41 c-3 -5 -10
-7 -15 -3 -5 3 -7 10 -3 15 3 5 10 7 15 3 5 -3 7 -10 3 -15z m1 -58 c3 -5 1
-12 -5 -16 -5 -3 -10 1 -10 9 0 18 6 21 15 7z m-115 -21 c0 -5 -2 -10 -4 -10
-3 0 -8 5 -11 10 -3 6 -1 10 4 10 6 0 11 -4 11 -10z m42 -52 l-22 -22 0 44 0
44 22 -22 22 -22 -22 -22z m73 32 c3 -5 1 -10 -4 -10 -6 0 -11 5 -11 10 0 6 2
10 4 10 3 0 8 -4 11 -10z m-67 -108 c-3 -28 -28 -43 -28 -17 0 9 5 13 10 10 6
-3 10 1 10 10 0 9 -4 13 -10 10 -5 -3 -10 4 -10 16 0 18 2 20 16 9 8 -7 14
-25 12 -38z m72 38 c0 -5 -4 -10 -10 -10 -5 0 -10 5 -10 10 0 6 5 10 10 10 6
0 10 -4 10 -10z m-5 -30 c3 -5 -1 -10 -10 -10 -9 0 -13 5 -10 10 3 6 8 10 10
10 2 0 7 -4 10 -10z m-115 -20 c0 -5 -5 -10 -11 -10 -5 0 -7 5 -4 10 3 6 8 10
11 10 2 0 4 -4 4 -10z m-376 -45 c-4 -8 -10 -12 -15 -9 -14 8 -10 24 6 24 9 0
12 -6 9 -15z m96 0 c-7 -8 -23 -15 -35 -15 -13 0 -25 7 -29 15 -4 12 3 15 36
15 35 0 39 -2 28 -15z m98 3 c-7 -19 -53 -21 -68 -4 -11 14 -7 16 30 16 29 0
40 -4 38 -12z m56 0 c5 -10 7 -10 12 0 3 6 13 12 22 12 15 0 15 -1 0 -16 -17
-17 -68 -13 -68 6 0 14 27 12 34 -2z m136 -3 c-7 -8 -23 -15 -35 -15 -12 0
-28 7 -35 15 -11 13 -6 15 35 15 41 0 46 -2 35 -15z m110 -5 c0 -5 -4 -10 -10
-10 -5 0 -10 5 -10 10 0 6 5 10 10 10 6 0 10 -4 10 -10z m70 0 c0 -5 -4 -10
-10 -10 -5 0 -10 5 -10 10 0 6 5 10 10 10 6 0 10 -4 10 -10z m40 0 c0 -5 -4
-10 -10 -10 -5 0 -10 5 -10 10 0 6 5 10 10 10 6 0 10 -4 10 -10z m30 0 c0 -5
-4 -10 -10 -10 -5 0 -10 5 -10 10 0 6 5 10 10 10 6 0 10 -4 10 -10z m40 0 c0
-5 -4 -10 -10 -10 -5 0 -10 5 -10 10 0 6 5 10 10 10 6 0 10 -4 10 -10z m40 0
c0 -5 -4 -10 -10 -10 -5 0 -10 5 -10 10 0 6 5 10 10 10 6 0 10 -4 10 -10z m30
0 c0 -5 -2 -10 -4 -10 -3 0 -8 5 -11 10 -3 6 -1 10 4 10 6 0 11 -4 11 -10z
m40 0 c0 -5 -4 -10 -10 -10 -5 0 -10 5 -10 10 0 6 5 10 10 10 6 0 10 -4 10
-10z m40 0 c0 -5 -4 -10 -10 -10 -5 0 -10 5 -10 10 0 6 5 10 10 10 6 0 10 -4
10 -10z m30 0 c0 -5 -4 -10 -10 -10 -5 0 -10 5 -10 10 0 6 5 10 10 10 6 0 10
-4 10 -10z m40 0 c0 -5 -4 -10 -10 -10 -5 0 -10 5 -10 10 0 6 5 10 10 10 6 0
10 -4 10 -10z m40 0 c0 -5 -4 -10 -10 -10 -5 0 -10 5 -10 10 0 6 5 10 10 10 6
0 10 -4 10 -10z m10 -31 c0 -6 -32 -10 -87 -9 -49 1 -159 1 -245 1 l-158 -1 0
-315 0 -315 168 -3 167 -3 -172 -2 -173 -2 0 -209 c0 -185 -2 -210 -16 -215
-9 -4 -17 -5 -18 -4 -1 2 -14 41 -30 88 -16 47 -33 89 -37 95 -5 5 -9 -37 -9
-95 0 -57 -3 -100 -6 -97 -4 3 -6 50 -5 104 1 60 -1 94 -7 88 -5 -5 -27 -58
-48 -117 -21 -60 -44 -108 -50 -108 -6 0 -24 35 -38 77 -37 104 -58 154 -64
149 -2 -3 -11 2 -19 10 -10 9 -12 24 -8 44 5 23 3 30 -8 30 -20 0 -25 26 -19
88 4 42 1 53 -12 58 -14 5 -46 52 -46 68 0 2 33 2 74 -1 40 -3 80 -2 89 3 15
9 14 15 -7 61 -27 57 -58 93 -81 93 -9 0 -35 -18 -59 -40 -38 -35 -45 -38 -56
-25 -10 12 -9 21 4 49 20 42 20 65 1 86 -12 13 -13 23 -4 48 6 18 16 33 22 34
7 0 19 2 27 2 10 1 15 12 15 36 0 20 5 35 13 36 6 1 16 2 21 3 12 1 38 75 45
129 6 42 6 42 -21 36 -16 -4 -39 -11 -52 -16 -31 -11 -48 10 -23 28 16 12 15
12 -2 11 -10 -1 -21 4 -23 10 -4 10 50 13 234 16 640 7 723 7 723 -4z m-380
-29 c0 -5 -4 -10 -10 -10 -5 0 -10 5 -10 10 0 6 5 10 10 10 6 0 10 -4 10 -10z
m30 0 c0 -5 -5 -10 -11 -10 -5 0 -7 5 -4 10 3 6 8 10 11 10 2 0 4 -4 4 -10z
m40 0 c0 -5 -5 -10 -11 -10 -5 0 -7 5 -4 10 3 6 8 10 11 10 2 0 4 -4 4 -10z
m110 0 c0 -5 -5 -10 -11 -10 -5 0 -7 5 -4 10 3 6 8 10 11 10 2 0 4 -4 4 -10z
m40 6 c0 -3 -4 -8 -10 -11 -5 -3 -10 -1 -10 4 0 6 5 11 10 11 6 0 10 -2 10 -4z
m30 -6 c0 -5 -5 -10 -11 -10 -5 0 -7 5 -4 10 3 6 8 10 11 10 2 0 4 -4 4 -10z
m40 0 c0 -5 -4 -10 -10 -10 -5 0 -10 5 -10 10 0 6 5 10 10 10 6 0 10 -4 10
-10z m70 0 c0 -5 -5 -10 -11 -10 -5 0 -7 5 -4 10 3 6 8 10 11 10 2 0 4 -4 4
-10z m30 -38 c0 -10 5 -23 10 -28 6 -6 14 -43 19 -83 6 -44 16 -80 27 -92 19
-22 16 -27 -71 -110 -44 -42 -101 -61 -116 -38 -19 31 -9 44 44 57 61 14 101
41 105 71 5 31 -26 27 -63 -9 -17 -16 -45 -33 -63 -36 -31 -6 -32 -5 -32 27 0
31 5 36 50 56 55 24 83 64 61 86 -9 9 -19 4 -44 -25 -18 -20 -41 -38 -52 -40
-18 -3 -21 4 -25 54 -9 96 -40 88 -40 -10 0 -52 0 -52 -27 -46 -27 6 -39 16
-67 59 -23 33 -30 8 -11 -36 20 -44 40 -59 79 -59 19 0 26 -5 26 -19 0 -11 3
-27 7 -37 6 -15 1 -16 -43 -10 -40 5 -55 13 -80 43 -36 43 -63 39 -39 -7 25
-47 62 -70 116 -70 48 0 49 -1 49 -30 0 -29 -2 -30 -45 -30 -39 0 -52 6 -89
40 -24 22 -46 40 -50 40 -17 0 -2 -50 22 -73 25 -24 100 -47 155 -47 16 0 6
-29 -13 -35 -11 -3 -20 -10 -20 -15 0 -5 9 -14 20 -20 11 -6 20 -20 20 -30 0
-19 -7 -20 -135 -20 l-135 0 0 270 0 270 225 0 c210 0 225 -1 225 -18z m-465
-32 c3 -5 1 -10 -4 -10 -6 0 -11 5 -11 10 0 6 2 10 4 10 3 0 8 -4 11 -10z m0
-100 c3 -5 1 -10 -4 -10 -6 0 -11 5 -11 10 0 6 2 10 4 10 3 0 8 -4 11 -10z m5
-104 c0 -3 -4 -8 -10 -11 -5 -3 -10 -1 -10 4 0 6 5 11 10 11 6 0 10 -2 10 -4z
m-5 -206 c3 -5 1 -10 -4 -10 -6 0 -11 5 -11 10 0 6 2 10 4 10 3 0 8 -4 11 -10z
m295 -100 c0 -5 -5 -10 -11 -10 -5 0 -7 5 -4 10 3 6 8 10 11 10 2 0 4 -4 4
-10z m-70 -4 c0 -3 -4 -8 -10 -11 -5 -3 -10 -1 -10 4 0 6 5 11 10 11 6 0 10
-2 10 -4z m-15 -76 c17 -11 25 -20 18 -20 -7 0 -18 -11 -25 -24 l-13 -25 -70
44 -70 45 65 0 c48 0 73 -5 95 -20z m-110 -260 c-29 -30 -45 -38 -45 -21 0 8
58 50 69 51 3 0 -8 -13 -24 -30z"/>
<path d="M2581 2312 c-1 -89 3 -163 8 -166 5 -3 26 0 47 8 l39 14 -37 7 c-47
9 -48 19 -5 32 l32 11 -32 7 c-18 4 -33 11 -33 14 0 4 15 15 33 24 l32 16 -27
0 c-41 1 -41 16 0 36 l37 18 -33 7 c-47 11 -50 19 -13 33 l32 12 -33 11 -33
11 38 19 c37 18 48 34 23 34 -7 0 -27 3 -44 6 l-30 6 -1 -160z"/>
<path d="M2255 2392 c-16 -11 -36 -26 -42 -34 -18 -21 -45 -100 -32 -92 7 4 9
-11 4 -49 -7 -56 7 -85 27 -56 7 11 11 11 15 2 10 -25 32 -13 35 20 3 29 6 32
41 35 38 3 39 3 35 -30 -2 -27 0 -33 17 -33 12 0 21 9 25 25 l6 25 7 -28 c5
-20 13 -27 25 -25 14 3 17 14 14 62 -2 51 0 57 12 46 21 -17 84 -17 100 1 7 7
16 40 19 72 5 51 4 57 -9 46 -9 -7 -14 -26 -13 -43 5 -80 -19 -90 -37 -15 -8
35 -16 45 -34 47 -14 2 -35 13 -49 23 -32 26 -124 26 -166 1z m9 -26 c-10 -8
-21 -12 -23 -10 -3 2 4 11 15 18 10 8 21 12 23 10 3 -2 -4 -11 -15 -18z m126
10 c0 -3 -4 -8 -10 -11 -5 -3 -10 -1 -10 4 0 6 5 11 10 11 6 0 10 -2 10 -4z
m20 -26 c0 -5 -4 -10 -10 -10 -5 0 -10 5 -10 10 0 6 5 10 10 10 6 0 10 -4 10
-10z m-32 -25 c-3 -3 -9 2 -12 12 -6 14 -5 15 5 6 7 -7 10 -15 7 -18z m-81
-15 c0 -16 -4 -27 -9 -24 -11 7 -11 54 0 54 5 0 9 -13 9 -30z m53 -15 c-13
-12 -15 -11 -15 15 0 26 2 28 15 15 13 -13 13 -17 0 -30z m-70 -20 c14 -19 14
-19 -2 -6 -10 7 -18 18 -18 24 0 6 1 8 3 6 1 -2 9 -13 17 -24z m85 -5 c-10
-11 -25 -20 -34 -19 -10 0 -8 4 7 9 12 5 25 17 28 25 4 9 9 13 12 10 3 -2 -3
-14 -13 -25z m-125 10 c0 -5 -4 -10 -10 -10 -5 0 -10 5 -10 10 0 6 5 10 10 10
6 0 10 -4 10 -10z m10 -47 c0 -30 -9 -27 -15 6 -2 11 0 21 6 21 5 0 9 -12 9
-27z m140 7 c0 -5 -4 -10 -10 -10 -5 0 -10 -7 -10 -15 0 -8 -4 -15 -10 -15 -6
0 -5 10 2 25 11 25 28 34 28 15z m-170 -14 c0 -3 -4 -8 -10 -11 -5 -3 -10 -1
-10 4 0 6 5 11 10 11 6 0 10 -2 10 -4z m200 -6 c0 -5 -4 -10 -10 -10 -5 0 -10
5 -10 10 0 6 5 10 10 10 6 0 10 -4 10 -10z"/>
<path d="M2813 2339 c-27 -10 -39 -52 -24 -85 14 -33 61 -36 94 -7 45 41 -11
114 -70 92z"/>
<path d="M3020 2120 c-17 -33 4 -62 43 -58 25 2 33 8 35 26 7 48 -56 73 -78
32z"/>
<path d="M2410 1930 c0 -5 5 -10 11 -10 5 0 7 5 4 10 -3 6 -8 10 -11 10 -2 0
-4 -4 -4 -10z"/>
<path d="M2840 1816 c0 -2 8 -10 18 -17 15 -13 16 -12 3 4 -13 16 -21 21 -21
13z"/>
<path d="M3188 1814 c-3 -5 -13 -35 -22 -66 -19 -68 -57 -128 -92 -146 -20
-11 -24 -20 -23 -50 1 -20 -2 -45 -6 -54 -4 -11 -3 -18 4 -18 6 0 11 6 11 13
0 16 32 47 48 47 7 0 12 -13 12 -29 0 -49 17 -44 23 7 12 98 44 254 54 261 6
3 7 15 3 25 -3 11 -9 15 -12 10z"/>
<path d="M3049 1792 c-1 -4 -2 -11 -4 -17 -1 -5 -3 -30 -3 -53 -2 -45 -27 -77
-95 -124 -22 -15 -25 -24 -22 -60 2 -24 5 -50 5 -58 1 -8 7 1 14 20 9 24 20
36 36 38 21 3 22 1 16 -32 -4 -23 -3 -36 4 -36 5 0 10 3 11 8 0 4 2 23 4 42 5
37 6 45 30 130 8 30 15 69 15 87 0 19 6 36 16 41 14 8 13 10 -5 15 -11 3 -22
2 -22 -1z"/>
<path d="M2935 1727 c-24 -56 -63 -99 -107 -121 -19 -9 -24 -23 -30 -71 -10
-76 -5 -92 12 -37 11 33 18 42 36 42 19 0 23 -6 26 -37 4 -45 12 -30 26 52 14
86 56 190 76 189 20 -2 21 10 1 26 -13 11 -19 4 -40 -43z"/>
<path d="M2490 1290 c0 -3 15 -13 33 -23 36 -20 98 -75 140 -126 l28 -33 -3
91 -3 92 -98 2 c-53 1 -97 0 -97 -3z m179 -24 c16 -20 -3 -56 -29 -56 -26 0
-45 36 -29 56 6 8 19 14 29 14 10 0 23 -6 29 -14z"/>
<path d="M2400 1205 c0 -42 5 -85 10 -96 18 -33 72 -23 152 27 l42 27 -38 33
c-38 33 -97 65 -143 79 -22 6 -23 4 -23 -70z"/>
<path d="M2559 1102 c-63 -51 -85 -81 -72 -101 13 -21 62 -47 122 -65 56 -16
53 -19 67 57 5 29 1 49 -21 92 -14 30 -32 55 -38 55 -7 -1 -33 -18 -58 -38z"/>
<path d="M2456 914 c-20 -19 -20 -29 0 -110 16 -63 18 -65 43 -59 40 10 90 52
122 103 16 25 29 49 29 53 0 8 -103 29 -146 29 -18 0 -40 -7 -48 -16z"/>
<path d="M2670 859 c-17 -40 -88 -112 -136 -138 l-39 -20 68 -1 67 0 -15 23
c-14 22 -14 25 5 42 20 18 21 18 41 -2 17 -17 19 -24 10 -42 -10 -17 -9 -21 4
-21 12 0 15 16 15 95 0 52 -2 95 -4 95 -2 0 -9 -14 -16 -31z"/>
<path d="M2346 644 c-3 -9 -6 -40 -6 -70 0 -53 0 -54 30 -54 l30 0 0 70 c0 67
-1 70 -24 70 -13 0 -27 -7 -30 -16z"/>
<path d="M2420 590 c0 -68 1 -70 25 -70 24 0 25 2 25 70 0 68 -1 70 -25 70
-24 0 -25 -2 -25 -70z"/>
<path d="M2497 653 c-4 -3 -7 -35 -7 -70 0 -60 1 -63 24 -63 22 0 25 5 31 59
4 33 4 65 0 70 -7 12 -38 15 -48 4z"/>
<path d="M2566 644 c-3 -9 -6 -40 -6 -70 0 -54 0 -55 28 -52 26 3 27 5 30 71
3 65 2 67 -21 67 -14 0 -28 -7 -31 -16z"/>
<path d="M2640 590 c0 -68 1 -70 25 -70 24 0 25 2 25 70 0 68 -1 70 -25 70
-24 0 -25 -2 -25 -70z"/>
<path d="M2380 508 c0 -2 9 -28 21 -58 11 -30 31 -84 43 -119 13 -35 25 -59
27 -55 3 5 2 59 -1 119 l-5 110 -42 3 c-24 2 -43 2 -43 0z"/>
<path d="M2497 503 c-4 -3 -7 -58 -7 -122 0 -63 4 -111 8 -106 9 10 82 215 82
228 0 9 -75 9 -83 0z"/>
<path d="M2602 498 c3 -7 22 -60 44 -118 l39 -105 3 105 c1 57 0 110 -2 117
-7 17 -90 18 -84 1z"/>
</g>
</svg>
