<?xml version="1.0" standalone="no"?>
<!DOCTYPE svg PUBLIC "-//W3C//DTD SVG 20010904//EN"
 "http://www.w3.org/TR/2001/REC-SVG-20010904/DTD/svg10.dtd">
<svg version="1.0" xmlns="http://www.w3.org/2000/svg"
 width="479.000000pt" height="480.000000pt" viewBox="0 0 479.000000 480.000000"
 preserveAspectRatio="xMidYMid meet">

<g transform="translate(0.000000,480.000000) scale(0.100000,-0.100000)"
fill="#000000" stroke="none">
<path d="M2170 4544 c-238 -28 -467 -97 -685 -204 -447 -220 -780 -553 -995
-995 -348 -713 -278 -1553 185 -2200 298 -416 756 -724 1249 -839 295 -69 514
-80 800 -40 713 99 1319 538 1640 1188 176 356 252 767 212 1143 -31 292 -90
501 -211 748 -185 380 -453 675 -816 900 -396 245 -905 356 -1379 299z m408
-44 c645 -50 1178 -393 1337 -859 24 -72 34 -173 12 -123 -11 25 -35 29 -43 8
-7 -19 -44 -16 -44 4 0 12 -13 14 -80 12 -52 -2 -80 0 -80 7 0 8 -80 11 -255
11 -222 0 -254 -2 -249 -15 4 -8 2 -15 -4 -15 -5 0 -15 7 -22 15 -7 8 -21 15
-31 15 -11 0 -19 6 -19 13 0 6 -5 4 -11 -7 -18 -31 3 -63 42 -64 24 -1 29 2
19 8 -9 6 -10 10 -3 10 6 0 15 -4 18 -10 3 -5 21 -10 38 -10 24 0 28 3 17 10
-8 5 -10 10 -5 10 6 0 16 -4 23 -8 10 -7 8 -13 -6 -30 -11 -12 -23 -22 -27
-22 -4 0 -24 -14 -45 -30 l-39 -31 20 -56 c29 -86 26 -89 -41 -42 l-60 42 -48
-33 c-26 -19 -50 -38 -53 -43 -4 -5 -9 -5 -13 1 -4 6 3 38 15 72 11 34 19 62
18 64 -70 48 -109 79 -109 85 0 5 -10 13 -22 20 -17 8 -18 10 -3 5 11 -4 36
-9 55 -11 27 -3 31 -2 20 6 -9 7 -10 11 -3 11 6 0 15 -4 18 -10 9 -15 36 -12
59 8 20 16 20 16 6 -2 -13 -17 -13 -19 0 -14 23 7 19 44 -4 40 -17 -3 -18 -2
-7 12 12 14 11 16 -7 16 -11 0 -28 -8 -38 -17 -13 -13 -19 -14 -22 -5 -2 8
-31 12 -92 12 -61 0 -90 -4 -92 -12 -3 -9 -9 -8 -22 5 -21 21 -56 22 -56 2 0
-17 -16 -20 -25 -5 -9 14 -45 12 -46 -2 0 -10 -2 -10 -6 0 -2 6 -10 9 -16 5
-6 -4 -8 0 -4 10 4 11 2 14 -9 10 -19 -7 -18 -33 1 -33 8 0 15 -5 15 -11 0 -5
-5 -7 -10 -4 -12 7 -4 -37 12 -68 19 -37 -5 -35 -57 3 -30 22 -58 40 -62 40
-4 0 -31 -17 -58 -38 -58 -44 -81 -45 -59 -4 15 30 20 77 5 54 -7 -11 -9 -10
-14 3 -4 9 -3 13 3 10 6 -3 10 -1 10 4 0 6 -6 11 -12 11 -10 0 -10 2 -1 8 8 5
3 11 -13 19 -13 6 -24 7 -24 3 0 -5 6 -10 13 -13 6 -2 9 -8 4 -12 -4 -5 -13
-3 -19 3 -8 8 -65 12 -184 12 -156 0 -173 2 -177 18 -2 9 -2 1 0 -18 3 -26 1
-31 -6 -20 -9 12 -11 11 -11 -8 0 -13 -4 -20 -10 -17 -5 3 -10 1 -10 -4 0 -6
21 -11 48 -11 34 0 43 3 32 10 -9 6 -10 10 -3 10 6 0 15 -4 18 -10 3 -5 11
-10 16 -10 6 0 8 4 5 8 -3 5 1 9 9 9 8 0 12 -4 9 -9 -3 -4 0 -8 5 -8 28 0 -4
-31 -92 -91 -5 -4 0 -35 11 -72 11 -36 17 -68 15 -71 -3 -3 -30 14 -60 36
l-54 41 -60 -42 c-64 -45 -68 -43 -44 35 8 27 15 54 15 60 0 7 -31 33 -70 59
-63 44 -79 65 -47 65 7 0 6 -4 -3 -10 -11 -7 -2 -9 32 -8 26 1 45 4 43 8 -2 4
14 2 36 -4 47 -12 60 -1 57 49 l-1 30 -4 -30 c-7 -45 -20 -51 -17 -8 1 21 0
32 -3 26 -4 -10 -78 -13 -324 -13 -175 0 -319 -4 -319 -9 0 -4 -17 -11 -37
-15 -21 -3 -53 -9 -72 -12 -23 -5 -36 -2 -42 7 -7 12 -9 12 -9 0 0 -11 -4 -9
-15 5 -10 13 -13 14 -10 3 3 -9 -1 -22 -10 -29 -12 -10 -15 -10 -15 5 0 41 34
147 75 231 216 447 775 747 1420 762 28 1 106 -3 173 -8z m519 -962 c-3 -8 -6
-5 -6 6 -1 11 2 17 5 13 3 -3 4 -12 1 -19z m-833 -15 c10 -25 3 -23 -17 3 -13
18 -14 22 -3 18 8 -3 17 -13 20 -21z m474 -10 c-10 -2 -26 -2 -35 0 -10 3 -2
5 17 5 19 0 27 -2 18 -5z m-1330 -395 l20 -63 71 -3 c39 -2 71 -6 71 -10 0 -4
-20 -20 -44 -35 -67 -42 -69 -46 -46 -112 11 -32 20 -62 20 -67 0 -5 -27 10
-59 33 l-60 42 -50 -37 c-28 -20 -55 -36 -60 -36 -4 0 0 25 10 57 11 31 19 61
19 67 0 6 -26 29 -58 51 l-57 40 76 3 77 3 17 64 c10 36 22 65 26 65 5 0 17
-28 27 -62z m2106 -3 l18 -64 75 -3 75 -3 -60 -44 -60 -43 19 -56 c29 -83 25
-87 -34 -42 -30 22 -57 40 -61 40 -4 0 -32 -19 -63 -41 -62 -46 -60 -49 -29
53 l15 48 -54 37 c-30 21 -55 41 -55 46 0 4 31 7 69 7 l69 0 22 65 c12 36 25
65 28 65 4 0 16 -29 26 -65z m-2269 -615 l18 -59 70 -3 71 -3 -57 -42 -56 -43
20 -56 c10 -32 19 -61 19 -66 0 -5 -25 9 -56 31 l-56 40 -54 -40 c-30 -22 -54
-34 -54 -28 0 7 8 37 17 67 l18 55 -29 21 c-16 12 -41 31 -55 43 l-26 22 70 1
70 0 19 60 c11 33 22 60 26 60 4 0 15 -27 25 -60z m2429 0 l17 -59 71 -3 72
-3 -57 -42 -56 -43 20 -57 c10 -31 18 -60 17 -65 -2 -4 -27 11 -55 33 l-53 40
-54 -41 c-31 -22 -57 -40 -60 -40 -2 0 6 30 17 66 l22 67 -29 21 c-16 12 -41
31 -55 43 l-26 22 70 1 70 0 19 60 c10 33 22 60 26 60 4 0 15 -27 24 -60z
m-2178 -670 l69 -5 -53 -38 c-58 -43 -56 -39 -42 -85 6 -17 14 -46 20 -63 10
-35 18 -37 -69 24 l-40 29 -55 -41 c-31 -23 -56 -38 -56 -33 0 5 9 35 20 67
11 32 20 59 20 60 0 1 -26 19 -57 41 l-57 39 69 5 69 5 19 50 c10 28 20 57 23
65 4 9 15 -11 28 -50 l23 -65 69 -5z m2014 65 l21 -64 72 -3 71 -3 -57 -39
c-32 -22 -56 -45 -54 -50 19 -52 38 -118 35 -121 -2 -2 -27 14 -57 37 l-53 40
-59 -41 c-32 -23 -59 -40 -59 -38 0 2 9 30 20 62 11 32 20 61 20 65 0 4 -25
25 -56 48 l-55 41 72 3 71 3 20 63 c10 34 20 62 23 62 2 0 13 -29 25 -65z
m-1660 -440 l22 -65 71 0 72 -1 -34 -27 c-19 -15 -45 -36 -58 -47 l-22 -20 20
-59 c11 -32 18 -60 15 -63 -2 -3 -26 11 -52 31 -26 20 -51 36 -57 36 -5 0 -32
-16 -59 -36 -27 -20 -51 -34 -53 -32 -3 3 4 31 15 63 11 32 20 61 20 64 0 3
-23 21 -50 40 -28 19 -50 38 -50 42 0 4 30 9 67 11 l67 3 20 63 c11 34 21 62
22 62 1 0 12 -29 24 -65z m1215 -5 l18 -60 69 0 c37 0 68 -3 68 -7 0 -5 -23
-24 -50 -43 -27 -19 -50 -40 -50 -46 0 -6 9 -36 19 -67 11 -32 16 -57 12 -57
-5 0 -29 16 -54 35 -25 19 -50 35 -55 35 -5 0 -31 -16 -58 -35 -27 -19 -50
-31 -52 -27 -1 4 6 33 17 64 l19 57 -56 43 -57 43 72 3 72 3 17 59 c9 33 20
60 24 60 4 0 15 -27 25 -60z m-605 -166 l22 -65 62 1 c33 1 65 1 70 1 5 -1
-16 -19 -47 -42 -32 -22 -57 -41 -57 -43 0 -2 9 -29 20 -61 11 -32 20 -62 20
-67 0 -5 -27 10 -59 33 l-59 41 -53 -40 c-30 -23 -55 -39 -57 -37 -3 3 19 83
33 116 5 13 -9 28 -51 58 -31 23 -53 41 -48 42 5 0 34 0 65 -1 60 -1 72 6 83
52 8 37 24 78 30 78 2 0 14 -30 26 -66z m-1430 -486 c0 -4 12 -5 28 -2 18 3
22 1 14 -4 -10 -7 -7 -11 12 -14 14 -3 26 -1 26 3 0 5 -5 9 -12 9 -6 0 -8 3
-5 6 4 4 13 2 20 -5 24 -20 108 -39 197 -46 46 -3 93 -8 105 -10 93 -22 385
-30 1055 -29 624 2 743 5 995 29 60 6 204 26 284 40 13 2 28 10 32 17 5 7 9
11 10 8 0 -3 2 -12 4 -22 3 -16 -20 -37 -121 -114 -85 -65 -174 -118 -319
-189 -321 -157 -643 -225 -1005 -212 -513 19 -983 210 -1339 545 -26 24 -28
29 -9 15 15 -10 28 -21 28 -25z"/>
<path d="M3005 3603 c4 -13 2 -23 -4 -23 -6 0 -8 -7 -4 -17 5 -14 8 -13 15 6
5 14 4 29 -2 39 -9 14 -10 13 -5 -5z"/>
<path d="M2314 3575 c10 -7 15 -18 12 -24 -4 -5 -2 -12 3 -15 5 -3 11 2 14 13
2 10 -3 23 -14 29 -26 17 -38 14 -15 -3z"/>
<path d="M1866 3545 c4 -8 8 -15 10 -15 2 0 4 7 4 15 0 8 -4 15 -10 15 -5 0
-7 -7 -4 -15z"/>
</g>
</svg>
