<?xml version="1.0" standalone="no"?>
<!DOCTYPE svg PUBLIC "-//W3C//DTD SVG 20010904//EN"
 "http://www.w3.org/TR/2001/REC-SVG-20010904/DTD/svg10.dtd">
<svg version="1.0" xmlns="http://www.w3.org/2000/svg"
 width="256.000000pt" height="256.000000pt" viewBox="0 0 256.000000 256.000000"
 preserveAspectRatio="xMidYMid meet">

<g transform="translate(0.000000,256.000000) scale(0.100000,-0.100000)"
fill="#000000" stroke="none">
<path d="M1144 2436 c-98 -19 -136 -32 -225 -78 -170 -87 -299 -243 -343 -414
-22 -85 -21 -223 3 -315 38 -147 86 -233 302 -536 75 -105 160 -230 188 -277
60 -98 151 -284 151 -307 0 -13 -19 -17 -117 -22 -276 -15 -509 -84 -545 -163
-10 -20 -8 -29 8 -51 31 -41 63 -61 141 -88 362 -126 1138 -83 1273 71 39 44
38 59 -5 100 -68 64 -286 120 -512 131 l-132 6 20 48 c58 148 148 300 328 552
216 303 264 389 302 536 24 92 25 230 3 315 -58 223 -258 414 -501 477 -102
26 -248 32 -339 15z m277 -388 c72 -33 119 -75 155 -140 25 -45 29 -64 29
-128 0 -65 -4 -83 -30 -129 -121 -219 -470 -220 -588 -3 -33 61 -44 139 -28
199 26 95 116 185 220 218 68 22 174 14 242 -17z"/>
</g>
</svg>
