<?xml version="1.0" standalone="no"?>
<!DOCTYPE svg PUBLIC "-//W3C//DTD SVG 20010904//EN"
 "http://www.w3.org/TR/2001/REC-SVG-20010904/DTD/svg10.dtd">
<svg version="1.0" xmlns="http://www.w3.org/2000/svg"
 width="432.000000pt" height="578.000000pt" viewBox="0 0 432.000000 578.000000"
 preserveAspectRatio="xMidYMid meet">

<g transform="translate(0.000000,578.000000) scale(0.100000,-0.100000)"
fill="#000000" stroke="none">
<path d="M1950 5680 c0 -25 -4 -30 -25 -30 -23 0 -25 -4 -25 -45 0 -41 2 -45
25 -45 22 0 25 -4 25 -34 0 -45 -20 -61 -60 -47 -34 11 -56 7 -86 -21 -19 -17
-23 -17 -51 -3 -37 19 -74 8 -98 -29 -14 -21 -20 -23 -43 -14 -38 14 -81 -5
-95 -42 -9 -24 -17 -30 -42 -30 -45 0 -74 -25 -81 -71 -5 -29 -11 -39 -25 -39
-11 0 -28 -9 -39 -20 -19 -19 -22 -19 -43 -5 -33 23 -66 18 -96 -14 -21 -22
-36 -29 -64 -28 -41 1 -72 -21 -81 -58 -4 -16 -11 -22 -20 -19 -24 9 -75 -24
-82 -54 -10 -48 -13 -52 -33 -52 -26 0 -61 -46 -61 -82 0 -20 -7 -31 -24 -40
-30 -13 -49 -56 -41 -90 5 -20 0 -32 -20 -53 -22 -21 -26 -33 -22 -59 4 -25 0
-37 -14 -49 -23 -20 -25 -64 -4 -87 13 -14 14 -22 4 -43 -26 -58 23 -127 92
-127 24 0 52 -8 68 -19 30 -21 107 -45 120 -36 5 3 19 -7 31 -22 21 -27 23
-60 5 -104 -5 -12 4 -20 33 -32 22 -9 42 -23 46 -33 8 -21 23 -17 146 34 244
101 461 144 720 145 266 0 492 -44 730 -145 126 -52 131 -54 144 -36 6 8 26
23 45 32 29 16 32 21 27 47 -4 20 1 43 15 70 21 42 24 44 80 53 19 4 45 15 57
26 13 12 35 20 56 20 72 0 124 52 112 112 -4 22 -1 37 11 50 20 22 21 71 3 94
-8 9 -13 31 -11 50 2 26 -4 40 -26 63 -25 24 -28 32 -20 56 12 35 -4 71 -38
87 -20 9 -25 18 -25 48 0 42 -33 80 -68 80 -16 0 -22 6 -22 23 -1 42 -53 84
-90 72 -15 -5 -22 0 -30 19 -13 36 -54 60 -90 52 -22 -4 -30 -2 -30 9 0 17
-47 55 -69 55 -9 0 -29 -7 -45 -15 -26 -14 -30 -13 -53 5 -14 11 -34 20 -44
20 -14 0 -19 7 -19 25 0 35 -42 75 -78 75 -24 0 -31 5 -36 25 -9 34 -66 62
-98 48 -19 -8 -27 -5 -54 24 -32 34 -61 41 -96 22 -16 -9 -24 -7 -43 11 -18
17 -34 21 -67 20 -67 -4 -68 -3 -68 39 0 33 4 40 23 43 19 3 22 9 22 43 0 36
-3 40 -27 43 -24 3 -28 8 -28 33 0 28 -2 29 -45 29 -43 0 -45 -1 -45 -30z m82
-12 c2 -25 8 -34 26 -36 16 -2 22 -10 22 -27 0 -17 -6 -25 -22 -27 -20 -3 -23
-10 -26 -50 -3 -41 0 -49 23 -64 20 -13 29 -14 38 -5 18 18 62 13 82 -9 10
-11 16 -22 13 -25 -3 -3 -11 1 -18 10 -16 19 -74 20 -89 1 -21 -25 -9 -79 21
-95 25 -14 29 -14 55 5 15 12 30 30 32 40 4 21 25 40 59 54 33 14 72 -7 79
-42 4 -22 10 -27 22 -22 59 26 112 8 114 -39 2 -25 4 -26 38 -21 45 8 80 -21
78 -63 -1 -21 -2 -23 -6 -8 -12 48 -71 73 -101 43 -22 -22 -15 -76 13 -94 23
-15 27 -15 53 2 45 30 88 29 117 -2 24 -26 26 -26 45 -9 37 33 110 10 110 -36
0 -14 7 -16 40 -12 46 6 80 -16 79 -51 0 -20 -1 -20 -9 2 -14 32 -57 47 -86
28 -31 -21 -39 -52 -20 -81 26 -39 68 -37 108 6 30 32 64 37 94 14 18 -14 17
-15 -7 -4 -43 18 -83 -6 -87 -53 -3 -30 1 -40 22 -54 15 -9 34 -14 44 -12 15
4 17 0 14 -24 -3 -18 2 -36 13 -48 9 -10 15 -26 13 -35 -2 -13 -12 -4 -36 29
-56 78 -199 186 -247 186 -8 0 -15 -8 -15 -19 0 -10 -7 -24 -15 -31 -21 -17
-19 -23 15 -42 24 -14 30 -24 30 -52 0 -28 -7 -40 -30 -58 -36 -26 -38 -50 -5
-72 50 -33 51 -139 0 -172 -13 -8 -36 -14 -52 -12 -25 3 -28 0 -25 -22 3 -38
46 -70 92 -70 56 0 70 8 70 40 0 19 9 36 26 49 33 26 45 26 78 0 30 -24 34
-63 10 -97 -30 -44 18 -112 79 -112 25 0 28 -3 25 -27 -2 -23 -9 -29 -33 -31
-16 -2 -33 -10 -38 -17 -6 -11 -26 -5 -95 25 -163 71 -366 131 -557 166 -138
25 -478 26 -615 0 -197 -36 -390 -95 -554 -170 -71 -33 -81 -35 -96 -21 -9 8
-31 15 -49 15 -35 0 -80 20 -101 45 -10 12 -23 15 -46 11 -64 -13 -115 40 -99
101 l8 28 8 -32 c19 -68 94 -93 146 -49 22 19 28 32 28 66 0 83 -88 119 -146
60 -30 -29 -30 -29 -49 -10 -26 26 -25 44 3 67 19 15 23 25 19 56 -4 37 10 67
31 67 5 0 3 -8 -6 -18 -35 -39 -9 -102 41 -102 36 0 62 27 62 65 0 38 -16 55
-52 55 -19 0 -26 4 -22 14 3 8 1 17 -5 21 -26 15 0 95 31 95 4 0 -1 -9 -12
-20 -25 -25 -25 -51 -2 -80 24 -30 70 -30 95 1 18 22 18 33 2 72 -5 13 -2 17
12 17 26 0 63 36 63 61 0 11 -10 30 -23 43 -48 48 -22 127 41 125 27 -1 26 -1
-5 -10 -38 -11 -56 -39 -47 -74 17 -67 114 -54 114 16 0 26 2 27 33 23 59 -10
93 43 56 89 -24 31 -45 34 -78 11 -18 -13 -22 -24 -19 -55 3 -29 1 -35 -9 -27
-15 12 -6 66 15 91 16 18 58 22 82 7 11 -7 17 -2 27 21 6 16 24 34 38 41 22
10 30 8 57 -12 l31 -23 19 27 c14 18 29 26 49 26 26 0 28 3 27 35 -2 52 26 78
74 71 35 -6 38 -4 38 18 0 25 41 66 65 66 7 0 23 -9 36 -20 l24 -20 -33 6
c-78 15 -101 -88 -25 -111 17 -4 29 1 48 19 26 26 30 42 16 65 -10 15 13 81
33 93 21 14 60 8 82 -13 l22 -21 13 24 c6 12 17 26 23 30 17 12 61 9 73 -3 9
-9 18 -8 37 5 22 14 26 24 26 61 0 41 -2 45 -25 45 -22 0 -25 4 -25 35 0 31 3
35 25 35 20 0 25 5 25 23 0 31 7 37 41 37 24 0 28 -4 31 -32z m126 -240 c28
-28 7 -78 -33 -78 -27 0 -45 18 -45 45 0 27 18 45 45 45 12 0 26 -5 33 -12z
m-530 -70 c7 -7 12 -21 12 -33 0 -44 -60 -63 -80 -26 -14 27 -13 37 6 55 18
19 45 21 62 4z m916 -84 c9 -8 16 -22 16 -29 0 -7 -7 -21 -16 -29 -30 -30 -74
-13 -74 29 0 42 44 59 74 29z m-1376 -192 c6 -56 -71 -70 -84 -15 -5 20 -2 31
15 44 31 26 65 11 69 -29z m1726 12 c9 -8 16 -22 16 -29 0 -7 -7 -21 -16 -29
-30 -30 -74 -13 -74 29 0 42 44 59 74 29z m-1840 -60 c22 -22 20 -50 -5 -68
-22 -15 -48 -11 -61 8 -32 46 27 99 66 60z m1954 -6 c27 -27 4 -78 -37 -78
-14 0 -41 29 -41 45 0 35 53 58 78 33z m-208 -28 c48 -24 158 -126 183 -169
l18 -30 -56 29 c-30 16 -80 37 -110 46 -30 10 -55 23 -55 30 0 7 -12 26 -26
43 -21 25 -23 34 -14 51 13 25 12 25 60 0z m-1863 -36 c-3 -3 -12 -4 -19 -1
-8 3 -5 6 6 6 11 1 17 -2 13 -5z m-49 -24 c-7 -10 -14 -17 -17 -15 -4 4 18 35
25 35 2 0 -1 -9 -8 -20z m73 0 c36 -20 21 -80 -20 -80 -48 0 -68 42 -35 74 18
19 28 20 55 6z m2129 -10 c38 -38 -14 -94 -56 -60 -19 17 -18 57 4 69 24 15
29 14 52 -9z m64 -106 c9 -8 16 -24 16 -34 0 -20 -25 -50 -41 -50 -27 0 -49
22 -49 50 0 44 44 65 74 34z m-2244 -9 c31 -38 -27 -96 -65 -65 -18 15 -20 51
-3 68 17 17 53 15 68 -3z m-45 -125 c15 -17 16 -24 7 -46 -10 -20 -18 -25 -43
-22 -39 4 -55 35 -33 67 19 26 46 27 69 1z m2329 4 c9 -8 16 -24 16 -34 0 -22
-25 -50 -45 -50 -20 0 -45 28 -45 50 0 22 25 50 45 50 7 0 21 -7 29 -16z m-10
-155 c52 -41 23 -129 -44 -129 -67 0 -96 88 -44 129 15 12 34 21 44 21 10 0
29 -9 44 -21z m-2284 -9 c44 -44 11 -120 -52 -120 -17 0 -40 7 -50 17 -23 20
-24 80 -1 105 22 24 77 24 103 -2z m2130 -61 c0 -61 -13 -73 -25 -21 -5 26 8
82 20 82 3 0 5 -27 5 -61z m-783 0 c100 -13 295 -61 409 -99 135 -46 274 -104
274 -115 0 -5 -23 -20 -50 -32 l-50 -22 15 -42 c8 -23 15 -43 15 -45 0 -11
-36 -1 -79 21 -80 40 -278 104 -411 133 -116 24 -143 26 -370 27 -216 0 -258
-3 -356 -23 -132 -26 -322 -87 -427 -135 -42 -20 -79 -32 -82 -27 -3 4 2 27
10 50 8 24 14 44 13 45 -2 2 -23 12 -47 25 -24 12 -39 25 -35 29 5 4 43 22 84
40 233 103 456 160 715 185 62 6 285 -3 372 -15z"/>
<path d="M1814 5425 c-34 -52 29 -115 81 -81 28 18 35 72 13 94 -22 22 -76 15
-94 -13z m80 -1 c30 -30 13 -74 -29 -74 -27 0 -45 18 -45 45 0 42 44 59 74 29z"/>
<path d="M1687 5412 c-35 -39 -7 -102 44 -102 26 0 61 49 53 74 -13 46 -67 61
-97 28z m68 -8 c21 -21 16 -53 -10 -70 -18 -12 -24 -11 -43 2 -26 18 -28 46
-6 68 20 20 38 20 59 0z"/>
<path d="M2220 5408 c-26 -28 -25 -52 2 -78 26 -24 46 -25 76 -4 43 30 18 104
-36 104 -12 0 -30 -10 -42 -22z m72 -5 c37 -33 13 -77 -39 -71 -23 2 -29 9
-31 33 -3 19 2 33 14 42 23 17 34 16 56 -4z"/>
<path d="M2362 5364 c-42 -29 -18 -104 35 -104 47 0 71 71 35 103 -23 21 -41
21 -70 1z m59 -4 c35 -19 15 -90 -26 -90 -20 0 -45 28 -45 50 0 20 25 50 41
50 6 0 19 -5 30 -10z"/>
<path d="M1952 5318 c-6 -6 -12 -19 -12 -27 0 -12 -3 -12 -12 -3 -16 16 -108
15 -190 -2 -95 -21 -170 -61 -229 -123 -69 -73 -100 -146 -106 -254 l-6 -85
41 -12 c55 -17 82 -53 82 -109 0 -35 -6 -49 -27 -69 -25 -23 -25 -25 -8 -44
29 -32 87 -27 130 11 32 29 34 32 20 52 -21 30 -19 52 8 83 51 59 146 14 131
-61 -5 -27 -2 -35 14 -44 33 -18 90 -13 112 9 27 27 25 37 -10 45 -16 4 -37
16 -45 28 -18 26 -20 72 -2 86 58 48 80 63 112 76 l36 16 -31 25 c-16 14 -30
33 -29 42 0 13 3 11 9 -5 17 -42 93 -42 110 0 6 14 9 16 9 6 1 -8 -10 -26 -24
-39 -14 -13 -25 -26 -25 -30 0 -3 16 -12 35 -19 19 -7 40 -21 45 -32 6 -10 17
-19 25 -19 22 0 56 -50 49 -74 -8 -28 -51 -66 -75 -66 -24 0 -24 -15 1 -40 29
-29 63 -34 103 -15 32 15 35 20 30 48 -7 43 27 87 66 87 62 0 98 -59 70 -113
-10 -18 -7 -25 20 -49 39 -35 70 -36 101 -3 l24 25 -22 20 c-30 28 -36 61 -19
103 16 37 59 67 97 67 30 0 35 23 22 119 -26 197 -132 319 -311 357 -85 18
-211 19 -211 2 0 -7 -6 -2 -13 12 -14 28 -73 40 -95 18z m76 -10 c7 -7 12 -21
12 -33 0 -12 -5 -26 -12 -33 -17 -17 -65 -15 -72 4 -16 41 1 74 39 74 12 0 26
-5 33 -12z m185 -28 c176 -18 294 -109 337 -259 5 -17 7 -31 6 -31 -2 0 -31
14 -65 31 -89 44 -213 64 -316 51 -44 -6 -88 -14 -98 -18 -15 -6 -17 -3 -11
20 3 14 6 36 5 48 -5 105 -2 151 11 159 16 11 23 11 131 -1z m-292 -32 c1 -18
2 -67 3 -108 l1 -75 -155 0 c-156 0 -201 -9 -322 -60 -16 -6 -16 -4 -1 40 22
65 117 166 185 195 75 33 102 38 201 39 l87 1 1 -32z m74 -38 c14 0 33 12 46
28 13 16 20 20 16 9 -4 -10 -7 -31 -7 -47 0 -27 -1 -28 -29 -17 -57 21 -101
-36 -71 -94 15 -28 74 -26 96 4 12 16 15 17 10 4 -3 -10 -6 -32 -6 -48 0 -27
-1 -28 -26 -17 -18 8 -33 9 -52 2 -25 -10 -27 -8 -31 20 -3 34 -3 103 1 139 1
12 -2 33 -6 47 -8 25 -8 25 13 -2 13 -16 32 -28 46 -28z m43 -77 c2 -24 -2
-34 -18 -43 -29 -15 -59 -4 -66 26 -9 34 12 56 50 52 27 -3 31 -7 34 -35z m-4
-135 c14 -23 -3 -52 -33 -56 -42 -6 -67 38 -39 66 17 17 58 11 72 -10z"/>
<path d="M1440 5288 c-11 -12 -20 -27 -20 -34 0 -21 41 -64 61 -64 25 0 59 35
59 60 0 26 -34 60 -60 60 -10 0 -28 -10 -40 -22z m70 -6 c40 -33 2 -90 -47
-71 -40 15 -25 87 18 89 4 0 17 -8 29 -18z"/>
<path d="M1350 5180 c-22 -22 -25 -42 -10 -71 9 -16 7 -19 -13 -19 -41 0 -72
-53 -49 -86 4 -6 17 -16 30 -23 19 -10 28 -10 48 4 34 22 40 43 22 75 -15 26
-14 27 7 22 27 -5 65 29 65 58 0 26 -34 60 -60 60 -11 0 -29 -9 -40 -20z m59
0 c44 -23 31 -80 -19 -80 -59 0 -61 74 -2 89 2 1 11 -3 21 -9z m-58 -110 c37
-20 15 -87 -27 -78 -9 2 -23 13 -31 25 -13 19 -12 24 6 42 24 24 26 24 52 11z"/>
<path d="M2566 5181 c-28 -30 -17 -73 22 -93 19 -9 29 -19 23 -23 -17 -10 -13
-60 7 -78 24 -22 55 -21 75 1 34 37 9 102 -38 102 -15 0 -16 3 -7 12 18 18 14
63 -6 81 -25 22 -55 21 -76 -2z m65 -1 c37 -20 18 -80 -26 -80 -43 0 -58 39
-28 72 19 21 27 22 54 8z m63 -132 c14 -23 -3 -52 -33 -56 -42 -6 -67 38 -39
66 17 17 58 11 72 -10z"/>
<path d="M1211 5171 c-28 -28 -26 -52 3 -80 30 -28 53 -25 80 12 19 26 19 30
5 55 -19 35 -60 41 -88 13z m74 -11 c35 -39 -17 -92 -61 -62 -19 13 -23 39 -8
61 19 26 46 27 69 1z"/>
<path d="M2707 5162 c-24 -26 -21 -68 5 -86 29 -20 41 -20 68 2 14 11 23 29
23 47 0 50 -63 74 -96 37z m67 -8 c30 -30 13 -74 -29 -74 -12 0 -26 5 -33 12
-7 7 -12 21 -12 33 0 42 44 59 74 29z"/>
<path d="M1182 5019 c-131 -75 -248 -240 -259 -367 -5 -58 -4 -63 26 -97 24
-28 31 -45 31 -78 0 -24 -7 -52 -15 -63 -24 -32 -19 -47 15 -41 42 9 78 35 96
69 14 27 14 32 1 46 -44 48 -19 115 41 115 39 0 59 -16 68 -56 8 -41 18 -47
77 -47 54 0 87 24 87 64 0 22 -3 24 -33 19 -92 -15 -127 121 -48 191 23 21 28
56 8 56 -21 0 -47 34 -47 59 0 34 17 58 46 65 l27 7 -22 23 c-11 12 -21 32
-21 44 0 29 -15 28 -78 -9z m68 -8 c0 -11 5 -23 11 -26 7 -5 4 -15 -9 -29 -11
-11 -24 -30 -30 -42 -6 -11 -30 -26 -54 -33 -24 -7 -70 -27 -103 -45 -33 -17
-64 -33 -68 -35 -17 -7 22 55 62 101 43 48 153 128 177 128 8 0 14 -9 14 -19z"/>
<path d="M1270 4930 c-11 -11 -20 -29 -20 -40 0 -11 9 -29 20 -40 11 -11 29
-20 40 -20 11 0 29 9 40 20 11 11 20 29 20 40 0 11 -9 29 -20 40 -11 11 -29
20 -40 20 -11 0 -29 -9 -40 -20z m61 0 c26 -15 26 -66 -1 -80 -46 -25 -91 39
-50 72 26 21 26 21 51 8z"/>
<path d="M2637 4932 c-29 -32 -21 -69 20 -91 57 -30 113 49 65 92 -24 22 -65
21 -85 -1z m73 -6 c28 -35 -11 -93 -47 -70 -36 22 -23 84 17 84 10 0 23 -7 30
-14z"/>
<path d="M1975 4852 c-64 -13 -88 -100 -40 -147 53 -54 145 -16 145 58 0 60
-48 100 -105 89z m73 -39 c17 -24 15 -73 -5 -95 -16 -18 -68 -24 -89 -10 -15
10 -34 47 -34 67 0 9 12 27 26 42 20 20 31 24 57 19 18 -3 38 -14 45 -23z"/>
<path d="M1314 4766 c-58 -49 -20 -146 56 -146 38 0 78 37 86 77 5 27 1 37
-24 63 -38 37 -80 40 -118 6z m103 -8 c33 -30 31 -80 -3 -107 -15 -12 -34 -21
-44 -21 -10 0 -29 9 -44 21 -33 26 -35 73 -4 106 27 29 65 29 95 1z"/>
<path d="M2556 4768 c-40 -35 -43 -78 -11 -116 54 -64 149 -29 149 55 0 70
-85 108 -138 61z m99 -13 c14 -13 25 -36 25 -50 0 -32 -41 -75 -71 -75 -63 0
-93 90 -43 129 35 27 59 26 89 -4z"/>
<path d="M1967 4664 c-4 -4 -7 -16 -7 -27 0 -10 -13 -32 -30 -47 l-30 -28 93
-4 c50 -2 94 -2 97 -1 2 2 -8 14 -23 26 -15 12 -31 36 -35 52 -6 22 -15 31
-33 33 -14 2 -28 0 -32 -4z"/>
<path d="M1658 4578 c-41 -41 -44 -48 -26 -48 43 0 188 24 188 31 0 4 -15 13
-34 19 -19 6 -45 19 -58 29 -23 17 -24 16 -70 -31z"/>
<path d="M2271 4616 c-6 -7 -35 -24 -64 -36 -29 -13 -47 -25 -42 -26 24 -8
200 -31 205 -27 3 3 -8 16 -25 30 -16 14 -37 37 -46 50 -13 20 -18 22 -28 9z"/>
<path d="M1397 4603 c-4 -3 -7 -20 -7 -38 0 -17 -9 -47 -19 -68 -10 -20 -16
-37 -13 -37 5 0 114 32 162 48 10 3 4 9 -17 18 -18 8 -43 30 -55 49 -22 34
-38 42 -51 28z"/>
<path d="M2544 4574 c-16 -20 -39 -38 -56 -41 -29 -6 -39 -23 -13 -23 8 0 48
-11 90 -24 41 -13 75 -23 75 -22 0 1 -9 19 -20 41 -11 22 -20 51 -20 66 0 42
-26 43 -56 3z"/>
<path d="M2810 4468 c-19 -10 -47 -18 -62 -18 -31 0 -38 -17 -10 -27 9 -3 50
-21 91 -40 41 -18 76 -31 79 -29 2 3 -5 18 -17 35 -12 16 -24 43 -27 60 -8 40
-12 41 -54 19z"/>
<path d="M1137 4473 c-2 -5 -7 -21 -11 -37 -4 -17 -17 -43 -28 -58 -11 -16
-18 -31 -16 -34 3 -2 49 17 104 43 l98 48 -50 11 c-27 6 -59 16 -71 22 -12 7
-24 9 -26 5z"/>
<path d="M1916 4424 c-38 -20 -65 -39 -60 -43 5 -4 38 -18 73 -30 l64 -23 68
23 c38 13 69 27 69 30 0 8 -124 79 -137 79 -4 -1 -39 -17 -77 -36z"/>
<path d="M1696 4417 c-26 -19 -24 -67 4 -89 27 -22 39 -22 68 -2 42 29 18 104
-34 104 -11 0 -28 -6 -38 -13z m64 -15 c28 -23 20 -59 -16 -68 -46 -12 -72 37
-38 70 20 20 27 20 54 -2z"/>
<path d="M2217 4412 c-35 -38 -7 -102 44 -102 23 0 49 32 49 62 0 50 -61 76
-93 40z m73 -17 c20 -24 -3 -65 -35 -65 -32 0 -55 41 -35 65 7 8 23 15 35 15
12 0 28 -7 35 -15z"/>
<path d="M1403 4337 c-32 -27 -59 -53 -61 -57 -3 -9 59 -20 116 -20 35 0 54 8
98 41 31 22 53 43 51 46 -3 2 -37 13 -76 23 l-70 18 -58 -51z"/>
<path d="M2443 4363 c-35 -8 -63 -18 -63 -23 0 -4 24 -24 54 -45 52 -36 58
-37 120 -33 36 2 69 8 73 12 9 9 -95 107 -111 105 -6 -1 -39 -8 -73 -16z"/>
<path d="M1207 4282 c-22 -24 -21 -65 1 -85 36 -33 85 -15 97 35 13 53 -61 91
-98 50z m77 -24 c15 -24 -3 -52 -37 -56 -33 -4 -53 28 -37 59 14 25 58 23 74
-3z"/>
<path d="M2697 4282 c-35 -39 -9 -102 41 -102 28 0 62 34 62 60 0 27 -35 60
-63 60 -13 0 -31 -8 -40 -18z m77 -24 c15 -24 -3 -52 -37 -56 -33 -4 -53 28
-37 59 14 25 58 23 74 -3z"/>
<path d="M1745 4245 c-374 -52 -707 -210 -1007 -478 -299 -266 -515 -659 -590
-1067 -31 -168 -31 -468 0 -635 64 -347 196 -627 424 -901 152 -181 371 -351
596 -464 125 -62 363 -142 492 -165 143 -26 446 -31 592 -11 925 129 1618 924
1618 1856 0 521 -220 1020 -605 1376 -300 277 -660 446 -1050 493 -117 14
-356 12 -470 -4z m621 -69 c347 -73 641 -229 893 -471 122 -117 211 -225 288
-350 330 -529 371 -1194 109 -1750 -218 -460 -606 -806 -1083 -965 -670 -223
-1379 -49 -1883 460 -268 272 -430 586 -500 970 -97 536 59 1089 429 1518 229
266 588 484 940 572 162 41 254 49 476 45 177 -3 229 -7 331 -29z"/>
<path d="M1740 3994 c-514 -80 -964 -406 -1198 -869 -67 -131 -97 -212 -132
-359 -181 -737 175 -1513 847 -1849 383 -192 834 -225 1248 -91 119 38 327
145 435 221 116 84 286 250 369 363 160 217 265 468 307 731 21 130 14 433
-11 549 -146 660 -633 1151 -1280 1290 -133 29 -444 36 -585 14z m582 -53
c667 -144 1159 -674 1254 -1351 21 -150 14 -383 -16 -525 -68 -321 -206 -573
-444 -811 -314 -312 -686 -468 -1126 -468 -477 -1 -906 198 -1213 563 -408
485 -490 1175 -207 1743 218 437 626 752 1099 847 140 29 148 29 361 26 151
-3 217 -8 292 -24z"/>
<path d="M1139 3661 c-91 -60 -230 -180 -295 -256 -377 -436 -487 -1004 -299
-1545 54 -157 165 -353 265 -470 l30 -35 65 70 c36 39 77 84 91 102 l25 32
-54 78 c-111 160 -179 315 -214 490 -24 125 -24 388 1 503 10 47 21 91 25 97
4 8 40 -21 105 -86 l97 -98 3 -169 c2 -134 7 -186 25 -253 25 -99 82 -223 141
-312 49 -73 193 -220 262 -267 60 -41 211 -117 265 -133 l42 -12 3 -151 3
-151 40 -7 c22 -3 86 -10 142 -14 l102 -7 3 144 3 144 65 7 65 8 211 -211
c187 -187 214 -210 235 -204 43 13 231 115 305 167 97 66 229 191 310 291 152
190 250 401 305 657 33 152 33 448 0 600 -46 218 -136 426 -258 600 -88 125
-273 309 -385 383 l-87 57 -193 -190 c-106 -104 -197 -190 -203 -190 -5 0 -39
10 -75 21 -212 67 -433 66 -635 -3 l-70 -24 -195 193 -195 193 -76 -49z m1765
-83 c155 -112 327 -320 429 -520 257 -505 209 -1123 -123 -1576 -25 -34 -48
-60 -51 -59 -3 1 -39 32 -79 69 l-72 66 64 99 c105 160 172 324 204 503 19
110 19 319 0 441 -29 178 -115 384 -225 539 -43 61 -224 250 -239 250 -4 0
-56 -49 -116 -109 l-110 -110 82 -80 c45 -45 82 -85 82 -90 0 -5 -29 -36 -64
-68 l-65 -59 -80 78 c-45 43 -85 78 -89 78 -4 0 -108 -101 -232 -225 l-225
-225 -226 226 -226 226 -62 -52 c-116 -97 -222 -268 -261 -424 -66 -263 28
-582 228 -768 77 -72 197 -143 290 -172 l22 -7 0 410 0 411 235 0 235 0 0 -85
0 -85 -130 0 -130 0 0 -110 0 -110 80 0 80 0 0 -85 0 -85 -80 0 -80 0 0 -145
0 -145 68 0 c167 0 379 91 516 221 l83 78 58 -59 59 -60 -29 -31 c-123 -131
-241 -210 -412 -274 -78 -30 -212 -55 -289 -55 l-54 0 0 -146 0 -147 -82 7
c-141 12 -128 -5 -128 166 l0 148 -67 23 c-155 50 -298 143 -413 265 -124 132
-206 289 -242 462 -26 127 -21 336 11 457 49 182 153 347 309 486 l52 47 -107
113 c-59 63 -112 115 -118 117 -15 4 -171 -150 -227 -223 -190 -249 -280 -543
-264 -859 13 -265 77 -462 220 -676 l56 -83 -62 -66 c-34 -36 -65 -67 -68 -69
-13 -5 -158 220 -199 309 -54 114 -95 244 -123 381 -29 146 -30 376 -3 518 40
217 138 449 262 623 70 98 222 254 318 324 123 91 89 104 308 -114 l192 -191
45 20 c75 32 199 58 310 65 121 6 247 -12 374 -53 l78 -26 191 190 191 191 31
-19 c16 -11 57 -38 89 -62z m-8 -320 c174 -181 277 -373 329 -608 26 -119 31
-347 10 -471 -19 -117 -60 -251 -103 -335 l-29 -57 -454 457 c-250 251 -455
460 -457 465 -2 5 56 69 128 142 l130 134 83 -85 84 -86 98 91 99 92 -84 86
-83 87 53 58 c72 77 99 102 114 102 7 0 44 -33 82 -72z m-1404 -1236 l228
-227 0 -62 c0 -35 -2 -63 -4 -63 -16 0 -112 51 -162 86 -129 91 -229 229 -279
387 -25 77 -32 127 -17 114 4 -4 109 -110 234 -235z"/>
<path d="M1837 3165 c-114 -29 -115 -21 24 -161 68 -68 128 -124 134 -124 6 0
66 56 135 125 84 84 119 126 109 129 -8 3 -34 13 -59 22 -64 23 -267 28 -343
9z m311 -41 c12 -3 22 -11 22 -17 0 -6 -39 -48 -87 -93 l-88 -83 -90 89 c-49
49 -86 92 -82 96 21 22 258 28 325 8z"/>
</g>
</svg>
