<?xml version="1.0" standalone="no"?>
<!DOCTYPE svg PUBLIC "-//W3C//DTD SVG 20010904//EN"
 "http://www.w3.org/TR/2001/REC-SVG-20010904/DTD/svg10.dtd">
<svg version="1.0" xmlns="http://www.w3.org/2000/svg"
 width="500.000000pt" height="500.000000pt" viewBox="0 0 500.000000 500.000000"
 preserveAspectRatio="xMidYMid meet">

<g transform="translate(0.000000,500.000000) scale(0.100000,-0.100000)"
fill="#000000" stroke="none">
<path d="M2220 4809 c-327 -37 -720 -181 -1000 -366 -351 -232 -622 -538 -804
-907 -112 -227 -183 -453 -222 -710 -24 -156 -24 -479 0 -641 89 -593 383
-1113 836 -1481 666 -540 1577 -669 2365 -335 547 232 983 663 1220 1207 198
452 246 949 138 1444 -24 115 -95 323 -148 440 -339 739 -1013 1237 -1825
1346 -115 15 -436 17 -560 3z m660 -38 c391 -70 757 -236 1065 -484 111 -89
296 -283 384 -400 229 -306 377 -658 438 -1044 24 -152 24 -525 0 -678 -121
-760 -596 -1405 -1273 -1730 -714 -342 -1547 -299 -2216 115 -209 130 -467
363 -605 546 -419 555 -573 1238 -428 1899 202 915 943 1623 1858 1774 179 30
172 29 427 26 183 -2 260 -8 350 -24z"/>
<path d="M2290 4724 c-417 -50 -760 -176 -1070 -393 -443 -309 -765 -778 -889
-1292 -52 -219 -56 -257 -56 -534 0 -275 4 -314 55 -530 189 -796 842 -1448
1640 -1635 189 -44 256 -52 460 -57 227 -6 367 8 564 53 467 107 893 368 1202
737 632 751 696 1822 159 2647 -339 521 -867 867 -1500 982 -81 14 -165 21
-320 23 -115 2 -226 1 -245 -1z m565 -43 c615 -109 1124 -438 1469 -949 188
-277 304 -586 357 -947 17 -115 18 -441 0 -565 -65 -479 -271 -903 -605 -1249
-346 -358 -781 -580 -1276 -651 -134 -19 -183 -22 -360 -17 -306 8 -499 46
-770 154 -633 253 -1112 786 -1303 1453 -56 193 -78 362 -78 590 0 326 52 586
176 875 113 262 267 489 469 690 358 356 805 571 1317 634 130 17 468 6 604
-18z"/>
<path d="M2520 4395 l0 -75 -80 0 -80 0 0 70 0 70 -35 0 -35 0 2 -177 3 -178
35 0 35 0 -3 66 c-2 37 0 69 5 72 4 3 40 6 78 8 l70 4 5 -70 5 -70 39 -3 39
-3 -6 122 c-4 67 -7 148 -7 181 l0 58 -35 0 -35 0 0 -75z"/>
<path d="M2786 4403 c-4 -21 -21 -98 -37 -172 -16 -74 -28 -135 -26 -137 4 -4
236 -54 253 -54 9 0 14 11 14 29 0 28 -3 30 -57 41 -117 23 -118 24 -121 56
-4 51 7 57 78 43 61 -12 64 -12 82 11 23 29 18 32 -71 50 l-63 13 6 35 c3 19
7 37 10 40 3 3 43 -3 88 -12 106 -21 105 -21 111 10 3 19 -1 28 -17 34 -23 10
-208 50 -230 50 -8 0 -16 -15 -20 -37z"/>
<path d="M1944 4391 c-23 -10 -54 -36 -70 -57 -26 -33 -29 -46 -29 -109 0 -60
4 -78 25 -109 64 -96 220 -103 295 -14 31 37 31 42 -1 56 -23 11 -29 9 -54
-17 -36 -36 -81 -45 -125 -26 -80 33 -99 141 -35 198 30 26 38 29 87 25 51 -5
55 -3 69 24 14 27 14 29 -11 38 -41 15 -106 11 -151 -9z"/>
<path d="M3231 4288 c-35 -19 -62 -60 -63 -97 -1 -27 9 -43 61 -95 71 -72 77
-99 23 -104 -28 -3 -40 4 -77 40 -38 38 -47 42 -69 35 -32 -11 -32 -13 -1 -60
61 -88 195 -110 238 -38 33 56 23 90 -43 156 -63 63 -69 75 -45 95 22 18 62 4
96 -32 26 -29 30 -31 54 -18 31 17 31 21 0 58 -44 53 -131 82 -174 60z"/>
<path d="M1598 4254 c-16 -8 -28 -19 -28 -25 0 -6 23 -49 51 -96 28 -46 49
-87 46 -89 -3 -3 -62 18 -132 46 -120 48 -128 50 -151 35 -13 -8 -24 -21 -24
-27 0 -8 161 -280 176 -297 2 -2 16 5 32 15 l30 19 -58 95 c-32 52 -55 96 -50
98 5 2 67 -20 139 -48 126 -50 131 -51 156 -34 23 15 24 19 12 38 -11 16 -78
128 -171 283 -1 1 -13 -5 -28 -13z"/>
<path d="M3547 4132 c-18 -19 -23 -42 -9 -42 4 0 22 -13 41 -29 l34 -28 -86
-113 c-48 -62 -87 -116 -87 -120 0 -7 44 -40 53 -40 2 0 43 52 92 115 94 125
86 121 142 72 24 -22 47 -18 62 11 9 16 -4 30 -104 105 -63 48 -116 87 -118
87 -2 0 -11 -8 -20 -18z"/>
<path d="M2352 3919 c-225 -21 -448 -102 -649 -236 -77 -50 -91 -56 -189 -72
-58 -10 -109 -22 -113 -27 -5 -5 -18 -59 -30 -121 -17 -93 -26 -121 -55 -160
-62 -87 -135 -237 -175 -359 -179 -546 -15 -1150 412 -1521 175 -153 350 -246
577 -307 47 -13 139 -45 204 -71 70 -28 134 -47 156 -47 20 0 79 17 131 37 52
21 135 48 184 61 151 41 216 64 326 119 146 71 255 150 380 274 386 387 518
962 338 1478 -37 105 -125 277 -180 350 -34 45 -43 68 -60 155 -11 57 -27 108
-35 115 -9 6 -54 17 -102 24 -80 11 -94 17 -176 71 -205 136 -420 213 -665
238 -114 11 -157 11 -279 -1z m390 -28 c182 -32 367 -103 528 -205 l65 -41
-37 -3 c-20 -2 -70 2 -110 8 -184 28 -278 33 -688 33 -413 0 -492 -3 -714 -33
-122 -17 -132 -12 -63 33 172 111 370 185 597 220 79 13 316 6 422 -12z m133
-301 c198 -12 586 -65 596 -82 4 -7 19 -73 33 -147 85 -452 98 -902 35 -1229
-85 -443 -457 -842 -961 -1032 l-88 -33 -87 33 c-359 135 -644 369 -827 680
-107 180 -150 347 -168 653 -16 277 6 596 62 897 13 68 41 190 44 190 1 0 77
11 168 24 141 21 260 34 453 49 99 8 586 6 740 -3z m822 -337 c150 -246 216
-477 216 -758 0 -167 -20 -296 -69 -444 -135 -408 -447 -731 -857 -887 -129
-49 -149 -41 -51 20 263 165 460 369 572 591 80 161 141 371 163 563 13 123 7
738 -9 792 -14 47 -25 190 -15 190 5 0 27 -30 50 -67z m-2367 -60 c-23 -175
-29 -262 -29 -489 -1 -340 20 -515 88 -723 59 -177 168 -367 287 -499 85 -96
263 -234 420 -328 41 -25 3 -23 -67 2 -474 170 -814 560 -921 1057 -30 139
-32 396 -4 542 22 120 73 269 128 379 49 98 100 174 106 158 2 -6 -2 -51 -8
-99z"/>
<path d="M2446 2201 c-17 -24 -38 -41 -55 -44 -17 -4 -42 -23 -62 -48 -20 -26
-52 -50 -85 -65 -28 -12 -60 -34 -71 -47 -11 -14 -39 -31 -62 -38 -24 -7 -45
-19 -48 -26 -3 -8 7 -32 23 -55 17 -25 27 -51 26 -67 -2 -16 9 -45 28 -74 22
-34 32 -66 37 -109 4 -39 13 -68 25 -80 12 -12 18 -33 18 -63 0 -53 11 -61 67
-46 26 7 50 7 73 1 22 -6 48 -6 78 2 34 8 60 8 107 -1 46 -9 68 -10 83 -2 15
8 35 8 72 -1 60 -14 70 -6 70 56 0 22 7 47 16 57 10 11 19 46 23 83 5 46 15
75 34 103 16 23 27 52 27 73 0 20 10 46 26 67 35 46 28 65 -27 83 -29 9 -52
24 -61 40 -9 17 -31 31 -59 39 -30 9 -60 30 -95 67 -29 30 -61 54 -71 54 -10
0 -31 18 -46 40 -16 22 -36 40 -46 40 -10 0 -30 -17 -45 -39z m78 -393 c8 -14
7 -21 -6 -34 -30 -30 -75 9 -48 42 16 18 39 15 54 -8z"/>
<path d="M1075 3856 c-15 -22 -12 -32 61 -199 77 -179 88 -191 113 -143 10 19
10 30 -4 61 l-16 39 55 55 55 55 41 -14 c38 -13 42 -12 65 10 14 13 22 27 18
31 -10 10 -342 129 -359 129 -8 0 -21 -11 -29 -24z m188 -103 c8 -5 -50 -73
-63 -73 -6 0 -50 99 -50 113 0 6 89 -25 113 -40z"/>
<path d="M3785 3750 c-71 -60 -131 -114 -133 -119 -2 -6 34 -55 80 -109 80
-97 83 -99 105 -85 13 9 23 19 23 23 0 5 -27 41 -60 80 -33 40 -58 76 -55 80
3 5 18 18 33 29 l28 20 42 -53 c35 -44 47 -52 67 -48 14 2 28 9 31 14 3 5 -16
34 -42 65 -50 59 -51 71 -7 100 20 13 25 10 78 -54 32 -37 62 -70 67 -72 5 -1
18 5 28 14 19 17 18 19 -25 74 -25 31 -64 77 -88 103 l-42 47 -130 -109z"/>
<path d="M836 3548 c-9 -17 -16 -35 -16 -40 0 -5 18 -40 40 -77 22 -37 40 -72
40 -78 0 -6 -38 -13 -90 -17 -86 -7 -91 -9 -105 -36 -8 -16 -15 -33 -15 -37 0
-4 70 -44 156 -88 150 -77 155 -79 169 -61 8 11 15 26 15 33 0 7 -43 34 -95
60 -52 26 -95 51 -95 55 0 10 25 15 102 23 l68 7 -41 74 c-23 41 -39 78 -36
81 3 3 49 -18 102 -46 52 -28 98 -51 100 -51 2 0 11 13 20 29 l15 30 -88 47
c-48 26 -119 64 -159 85 l-72 39 -15 -32z"/>
<path d="M4045 3434 c-186 -94 -178 -88 -160 -124 l16 -30 49 25 49 25 15 -22
c22 -31 20 -42 -15 -108 l-31 -58 19 -36 19 -37 34 66 c19 35 40 65 45 65 6
-1 19 -7 29 -15 61 -46 166 16 166 98 0 34 -82 217 -97 216 -4 0 -66 -29 -138
-65z m145 -74 c24 -48 25 -77 3 -102 -33 -37 -72 -19 -107 49 -22 44 -21 48
17 71 48 30 64 27 87 -18z"/>
<path d="M1985 896 c-37 -17 -80 -62 -94 -99 -17 -45 -13 -124 9 -167 22 -43
82 -83 139 -94 41 -7 106 9 144 36 l29 21 -25 24 -24 25 -34 -21 c-46 -29 -91
-27 -128 5 -65 54 -61 155 8 201 42 28 65 29 116 3 39 -20 40 -20 59 -1 11 11
16 26 13 36 -16 40 -148 59 -212 31z"/>
<path d="M2300 725 l0 -186 38 3 37 3 0 180 0 180 -37 3 -38 3 0 -186z"/>
<path d="M2467 903 c-4 -3 -7 -19 -7 -34 0 -27 2 -28 56 -31 l56 -3 2 -145 3
-145 36 -3 36 -3 3 148 3 148 55 5 c54 5 55 6 58 38 l3 32 -149 0 c-82 0 -152
-3 -155 -7z"/>
<path d="M2820 903 c0 -5 29 -53 65 -108 l65 -100 0 -78 0 -78 38 3 37 3 5 80
c5 77 7 83 64 170 32 50 63 96 69 103 7 9 -1 12 -35 12 l-44 0 -43 -75 c-23
-41 -46 -75 -50 -75 -4 0 -26 34 -50 75 -41 73 -43 75 -82 75 -21 0 -39 -3
-39 -7z"/>
</g>
</svg>
