<?xml version="1.0" standalone="no"?>
<!DOCTYPE svg PUBLIC "-//W3C//DTD SVG 20010904//EN"
 "http://www.w3.org/TR/2001/REC-SVG-20010904/DTD/svg10.dtd">
<svg version="1.0" xmlns="http://www.w3.org/2000/svg"
 width="502.000000pt" height="497.000000pt" viewBox="0 0 502.000000 497.000000"
 preserveAspectRatio="xMidYMid meet">

<g transform="translate(0.000000,497.000000) scale(0.100000,-0.100000)"
fill="#000000" stroke="none">
<path d="M2200 4825 c-362 -50 -693 -176 -995 -376 -592 -394 -972 -1006
-1055 -1697 -14 -118 -14 -442 0 -547 35 -270 118 -550 227 -770 268 -537 740
-966 1288 -1170 732 -273 1531 -181 2178 249 570 380 952 1006 1032 1694 91
775 -213 1548 -810 2060 -362 310 -821 512 -1277 561 -131 15 -471 12 -588 -4z
m560 -150 c318 -37 719 -179 960 -341 178 -119 318 -243 463 -409 155 -178
255 -336 352 -554 195 -441 239 -957 120 -1426 -156 -621 -579 -1147 -1151
-1433 -200 -100 -389 -162 -624 -204 -108 -20 -158 -23 -370 -23 -270 1 -385
15 -603 75 -634 176 -1171 647 -1432 1256 -105 245 -159 470 -174 730 -25 412
49 776 233 1138 161 318 399 589 721 822 117 85 375 211 545 268 304 101 652
137 960 101z"/>
<path d="M2220 4565 c-125 -18 -192 -33 -317 -71 -714 -216 -1274 -801 -1444
-1513 -42 -175 -51 -248 -56 -456 -6 -237 6 -356 56 -558 39 -156 68 -233 151
-402 301 -615 848 -1027 1535 -1156 161 -30 448 -37 625 -14 462 58 871 254
1208 579 331 319 522 688 618 1196 28 147 26 482 -5 653 -66 375 -209 693
-441 981 -341 423 -866 712 -1389 765 -136 14 -434 12 -541 -4z m585 -137 c97
-53 133 -163 82 -253 -20 -35 -43 -55 -102 -90 -15 -9 -9 -22 50 -119 36 -60
64 -110 63 -112 -2 -1 -34 5 -71 14 l-68 16 -59 93 -60 93 -65 0 -64 0 -3 -82
-3 -83 -57 -3 -58 -3 0 274 c0 150 2 276 4 278 2 2 89 2 193 -1 150 -4 194 -8
218 -22z m-735 -239 c242 -266 263 -290 258 -295 -3 -2 -33 -9 -67 -15 l-62
-11 -37 43 c-20 23 -41 48 -47 55 -8 10 -31 6 -110 -20 -55 -19 -108 -37 -117
-41 -15 -6 -18 -20 -18 -79 l0 -71 -60 -32 -60 -32 0 27 c0 15 7 126 15 247 8
121 15 248 15 282 0 38 5 65 12 70 22 14 92 41 108 41 8 0 85 -76 170 -169z
m1201 120 c27 -12 49 -27 49 -33 0 -15 -199 -477 -210 -490 -11 -11 -100 23
-100 38 0 6 41 113 91 236 50 124 95 235 100 248 10 27 9 27 70 1z m-1774
-208 c79 -37 123 -146 93 -236 -8 -23 -46 -73 -101 -131 -49 -51 -89 -96 -89
-101 0 -4 26 -31 58 -59 l57 -52 -40 -41 c-21 -23 -42 -41 -45 -41 -3 0 -23
17 -45 38 -22 20 -109 99 -192 175 -84 76 -153 142 -153 145 0 4 57 70 127
146 135 147 175 176 248 176 22 0 59 -9 82 -19z m2205 -48 c90 -49 202 -164
222 -230 6 -18 -1 -28 -35 -53 l-42 -30 -31 55 c-57 101 -154 180 -214 173
-21 -2 -28 -9 -30 -30 -3 -21 11 -42 70 -106 126 -137 163 -239 112 -309 -72
-98 -216 -73 -350 61 -56 57 -124 156 -124 183 0 6 17 25 39 42 l39 31 40 -68
c54 -91 114 -156 165 -181 56 -27 73 -26 92 3 22 34 9 60 -80 158 -78 84 -125
162 -125 208 0 39 33 91 71 112 45 25 113 18 181 -19z m-1957 -133 c-3 -80 -7
-166 -11 -191 -3 -29 -1 -49 5 -53 6 -4 41 8 78 26 l68 33 7 69 c4 39 12 73
20 77 7 5 38 16 68 24 30 9 65 21 78 27 20 11 27 7 72 -40 38 -39 57 -52 85
-55 20 -3 39 -8 43 -12 4 -4 -2 -5 -12 -3 -10 1 -21 -3 -24 -11 -3 -9 0 -12
10 -9 9 4 14 -1 15 -12 1 -15 -14 -24 -65 -40 -37 -12 -74 -26 -82 -31 -17
-11 -22 -12 100 20 414 109 883 -17 1207 -323 144 -136 263 -314 332 -495 77
-200 99 -435 62 -649 -52 -303 -160 -513 -370 -722 -93 -92 -138 -128 -223
-178 -207 -122 -364 -174 -582 -194 -111 -9 -153 -9 -274 5 -167 19 -249 44
-417 126 -151 75 -223 121 -309 201 -374 350 -514 872 -364 1358 25 82 109
264 143 307 13 18 21 35 18 39 -4 3 -2 6 3 6 6 0 36 33 68 73 l59 72 -67 -70
c-37 -38 -74 -82 -81 -96 -13 -25 -48 -49 -42 -30 1 5 -2 10 -8 12 -15 5 -55
55 -55 69 0 17 -52 133 -63 141 -5 3 -7 42 -5 86 3 77 4 79 23 69 11 -6 48
-37 83 -68 84 -77 103 -81 153 -32 53 51 51 73 -11 125 -27 23 -50 45 -50 49
0 4 32 43 71 86 92 103 121 162 117 243 -2 34 -6 61 -10 61 -10 0 -10 34 -1
43 3 4 13 1 21 -6 11 -8 14 -9 9 0 -5 8 4 13 30 16 90 9 83 21 78 -143z m-464
-2463 c36 -26 73 -93 57 -103 -7 -4 -14 -2 -16 7 -8 22 -78 89 -95 89 -28 0
-25 -27 7 -76 42 -62 50 -88 36 -114 -15 -28 -65 -26 -105 5 -41 31 -79 103
-63 122 8 10 15 5 29 -25 25 -51 73 -96 93 -89 24 10 19 37 -19 97 -40 62 -42
73 -16 99 22 22 51 19 92 -12z m2565 -43 c41 -37 71 -71 68 -76 -4 -7 -42 -9
-100 -6 -52 3 -94 4 -94 2 0 -1 24 -25 53 -53 40 -39 49 -53 40 -62 -9 -9 -29
3 -87 56 -42 37 -76 72 -76 77 0 16 23 18 118 10 50 -4 92 -5 92 -2 0 4 -25
28 -55 54 -30 26 -53 52 -50 57 10 15 13 12 91 -57z m-181 -200 c53 -59 65
-78 55 -87 -9 -9 -27 4 -81 62 -38 41 -69 81 -69 88 0 29 31 9 95 -63z m-2180
46 c6 -9 -50 -218 -61 -229 -2 -2 -10 1 -18 8 -11 9 -12 19 -3 47 10 32 8 37
-20 65 -30 31 -31 31 -63 14 -32 -17 -60 -14 -60 5 0 12 175 98 202 99 9 1 20
-4 23 -9z m2050 -114 c114 -63 118 -67 106 -79 -8 -8 -20 -6 -44 5 -32 15 -36
15 -71 -5 -35 -21 -36 -23 -30 -64 5 -34 3 -43 -8 -43 -20 0 -61 199 -46 218
6 7 14 11 17 10 3 -2 38 -21 76 -42z m-1911 6 c4 -6 -84 -150 -110 -181 -2 -2
-10 2 -18 8 -13 11 -7 25 41 97 52 78 74 97 87 76z m90 -61 c3 -5 11 -44 17
-87 6 -43 13 -82 16 -87 3 -5 19 18 35 50 37 71 40 74 57 64 11 -7 5 -26 -30
-96 -40 -79 -62 -106 -75 -93 -2 3 -11 41 -19 84 -22 116 -22 116 -61 46 -20
-35 -40 -62 -46 -60 -16 6 -13 16 33 104 41 78 60 97 73 75z m1664 -96 c20
-38 38 -73 40 -77 2 -5 -4 -8 -12 -8 -10 0 -27 23 -43 55 -15 30 -31 55 -35
55 -4 0 -8 -30 -10 -66 l-3 -65 -49 35 c-28 19 -52 34 -54 31 -2 -2 8 -29 22
-61 30 -66 30 -64 13 -64 -18 0 -101 170 -89 182 7 7 31 -4 70 -30 l59 -41 6
70 c10 115 18 113 85 -16z m-1379 -31 c51 -19 68 -30 64 -40 -4 -10 -12 -12
-27 -8 -44 14 -49 10 -75 -68 -14 -44 -31 -78 -38 -78 -18 0 -17 5 12 91 24
69 24 75 8 86 -9 7 -23 13 -30 13 -7 0 -13 7 -13 15 0 21 18 19 99 -11z m1075
-15 c29 -23 33 -55 12 -85 -13 -17 -12 -22 15 -50 25 -25 27 -32 15 -37 -10
-4 -26 7 -44 29 -27 33 -32 35 -63 26 -35 -9 -36 -13 -28 -71 2 -13 -1 -26 -7
-28 -9 -3 -64 157 -64 186 0 8 97 45 131 50 4 1 18 -8 33 -20z m-236 -56 c-2
-14 -18 -20 -67 -25 -35 -4 -66 -9 -68 -12 -3 -2 -2 -14 2 -25 5 -16 12 -19
40 -14 31 5 35 3 35 -16 0 -16 -6 -21 -28 -21 -36 0 -40 -4 -34 -36 3 -15 10
-23 18 -20 7 3 40 8 73 12 58 6 61 5 61 -15 0 -13 -6 -21 -17 -22 -10 0 -48
-3 -85 -8 l-68 -7 -5 30 c-14 87 -25 169 -23 171 8 5 107 22 136 24 27 1 33
-2 30 -16z m-247 -32 c22 -18 23 -20 6 -27 -10 -3 -23 -2 -30 5 -19 19 -85 13
-107 -9 -27 -27 -26 -81 1 -106 23 -21 92 -25 110 -7 18 18 3 43 -26 43 -16 0
-25 6 -25 15 0 11 12 15 45 15 l45 0 0 -38 c0 -59 -47 -90 -115 -78 -83 16
-115 117 -56 177 25 24 38 29 79 29 34 0 57 -6 73 -19z m-346 -66 c0 -16 -6
-19 -30 -17 -36 4 -50 16 -42 35 9 23 72 7 72 -18z"/>
<path d="M2510 4260 l0 -80 115 0 c110 0 117 1 140 25 33 32 34 83 2 113 -21
20 -34 22 -140 22 l-117 0 0 -80z"/>
<path d="M1880 4111 c0 -56 1 -101 3 -101 5 0 131 51 135 54 4 4 -118 141
-129 144 -5 2 -9 -40 -9 -97z"/>
<path d="M1279 3915 c-46 -47 -85 -89 -87 -93 -1 -5 27 -34 62 -65 l65 -57 80
90 c73 81 81 94 81 130 0 53 -27 80 -79 80 -36 0 -46 -7 -122 -85z m157 25
c-5 8 2 5 15 -7 l23 -23 -22 -27 c-12 -16 -32 -43 -45 -60 -12 -18 -28 -31
-35 -28 -7 3 -11 1 -8 -4 3 -4 -6 -19 -20 -32 -20 -19 -28 -21 -42 -12 -18 12
-19 53 0 64 6 4 7 12 3 19 -5 9 -4 11 3 6 7 -4 17 4 24 21 7 15 16 30 19 33 4
3 9 12 11 20 5 23 50 40 67 26 12 -9 13 -8 7 4z m-134 -72 c-7 -7 -12 -8 -12
-2 0 14 12 26 19 19 2 -3 -1 -11 -7 -17z"/>
<path d="M2020 3690 c-8 -5 -10 -10 -5 -10 6 0 17 5 25 10 8 5 11 10 5 10 -5
0 -17 -5 -25 -10z"/>
<path d="M2429 3673 c-20 -5 -29 -45 -29 -127 0 -115 -26 -297 -67 -461 -42
-171 -64 -235 -130 -380 -36 -77 -71 -155 -79 -172 l-14 -33 404 0 404 0 -60
120 c-136 276 -216 577 -237 899 -7 100 -13 146 -23 152 -13 9 -139 10 -169 2z"/>
<path d="M2235 3640 c-218 -49 -418 -163 -589 -334 -137 -137 -251 -338 -303
-535 -22 -80 -27 -125 -30 -271 -5 -196 7 -277 67 -441 50 -138 40 -136 161
-31 372 322 595 685 718 1168 42 166 84 465 65 463 -5 0 -45 -9 -89 -19z m68
-54 c-6 -45 -10 -74 -17 -141 -10 -79 -47 -235 -57 -235 -4 0 -11 -10 -14 -22
-8 -24 -60 -78 -76 -78 -5 0 -9 -6 -9 -12 0 -14 -79 -68 -99 -68 -6 0 -11 -4
-11 -10 0 -5 -9 -10 -19 -10 -11 0 -22 -4 -25 -9 -4 -5 -25 -12 -49 -16 -23
-4 -47 -11 -53 -16 -15 -12 -201 -5 -236 9 -14 6 -29 16 -33 21 -3 6 -21 11
-38 11 -21 0 -39 8 -50 21 -17 19 -17 22 6 73 26 56 96 156 109 156 4 0 8 5 8
11 0 10 86 94 155 151 61 50 192 119 285 148 142 46 142 46 186 46 40 1 41 1
37 -30z"/>
<path d="M2690 3643 c1 -36 30 -221 55 -353 84 -431 293 -828 595 -1130 93
-94 238 -220 253 -220 2 0 21 41 41 91 104 260 113 541 26 811 -129 402 -477
715 -893 803 -84 18 -77 18 -77 -2z"/>
<path d="M2047 2408 c-13 -18 -44 -62 -69 -98 -103 -147 -305 -364 -436 -471
l-43 -35 37 -49 c57 -77 161 -181 246 -246 42 -32 78 -59 80 -59 2 0 2 42 0
94 -3 80 1 105 23 172 36 108 83 181 164 256 130 120 281 178 460 178 165 0
265 -36 424 -153 148 -108 234 -287 225 -469 -2 -43 -2 -78 0 -78 2 0 41 29
86 64 87 68 198 182 247 252 l28 42 -77 65 c-149 126 -320 317 -433 485 l-54
81 -442 1 -442 0 -24 -32z"/>
<path d="M2430 2074 c-114 -22 -211 -73 -285 -148 -86 -88 -145 -223 -145
-331 0 -58 23 -146 52 -201 23 -44 31 -50 84 -66 250 -77 491 -78 734 -5 l75
23 35 69 c34 67 35 73 35 185 0 113 -1 117 -37 192 -66 133 -153 210 -295 259
-57 19 -203 33 -253 23z m99 -165 c20 -34 61 -147 61 -172 0 -12 -15 -52 -34
-89 -18 -36 -36 -77 -40 -90 l-7 -23 -8 25 c-5 14 -23 54 -41 89 -27 54 -31
72 -26 108 6 46 60 173 73 173 4 0 14 -10 22 -21z m-142 -251 c26 -21 73 -90
73 -107 0 -10 -11 -2 -30 20 -37 45 -83 67 -105 49 -21 -18 -19 -36 8 -55 22
-16 22 -16 3 -30 -23 -18 -27 -18 -61 -5 -37 14 -59 70 -43 106 23 50 107 62
155 22z m382 -4 c27 -34 27 -67 -1 -98 -33 -35 -61 -40 -89 -17 -19 16 -20 20
-8 21 9 0 22 6 28 14 16 18 -2 56 -26 56 -25 0 -78 -37 -93 -65 -7 -14 -17
-25 -22 -25 -18 0 46 101 76 120 47 30 109 27 135 -6z m-249 -163 c0 -5 7 -16
15 -24 13 -13 12 -18 -5 -39 l-19 -23 -22 21 c-21 22 -21 22 -3 48 19 26 34
33 34 17z"/>
<path d="M1406 1207 c-17 -12 -17 -14 -1 -27 14 -12 18 -12 26 1 21 34 7 49
-25 26z"/>
<path d="M3471 1133 c0 -10 3 -26 7 -35 6 -14 10 -15 26 -3 20 15 15 29 -15
45 -15 9 -19 7 -18 -7z"/>
<path d="M2977 918 c-32 -9 -37 -13 -31 -32 10 -33 16 -35 69 -17 38 12 50 21
50 36 0 24 -31 28 -88 13z"/>
</g>
</svg>
